<svg width="302" height="302" viewBox="0 0 302 302" fill="none" xmlns="http://www.w3.org/2000/svg">
    <path fill-rule="evenodd" clip-rule="evenodd"
          d="M260.763 225.259C261.527 225.259 262.146 225.888 262.146 226.664C262.146 227.439 261.527 228.068 260.763 228.068H222.614L165.63 285.591C165.089 286.138 164.214 286.136 163.675 285.586C163.137 285.035 163.14 284.146 163.681 283.599L221.069 225.668C221.328 225.406 221.678 225.259 222.044 225.259H260.763ZM266.986 214.374C267.75 214.374 268.369 215.004 268.369 215.779C268.369 216.555 267.75 217.183 266.986 217.183H222.621L155.959 285.583C155.421 286.135 154.546 286.139 154.003 285.593C153.46 285.048 153.456 284.159 153.993 283.607L221.061 214.791C221.32 214.524 221.674 214.374 222.044 214.374H266.986ZM252.12 236.494C252.885 236.494 253.503 237.123 253.503 237.899C253.503 238.674 252.885 239.303 252.12 239.303H222.61L178.763 283.139C178.218 283.683 177.343 283.676 176.807 283.123C176.272 282.571 176.279 281.682 176.822 281.137L221.074 236.898C221.332 236.639 221.681 236.494 222.044 236.494H252.12ZM241.058 247.378C241.822 247.378 242.441 248.008 242.441 248.783C242.441 249.559 241.822 250.187 241.058 250.187H222.627L195.377 278.554C194.843 279.109 193.968 279.12 193.421 278.578C192.875 278.037 192.864 277.148 193.397 276.592L221.054 247.802C221.314 247.531 221.671 247.378 222.044 247.378H241.058ZM154.976 269.147C155.739 269.147 156.359 269.775 156.359 270.551C156.359 271.327 155.739 271.956 154.976 271.956H93.785C93.0213 271.956 92.4022 271.327 92.4022 270.551C92.4022 269.775 93.0213 269.147 93.785 269.147H154.976ZM227.921 258.613C228.685 258.613 229.303 259.243 229.303 260.018C229.303 260.794 228.685 261.422 227.921 261.422H222.645L213.374 271.51C212.854 272.077 211.979 272.107 211.42 271.578C210.862 271.049 210.832 270.16 211.353 269.593L221.033 259.059C221.294 258.775 221.66 258.613 222.044 258.613H227.921ZM273.209 202.788C273.973 202.788 274.591 203.417 274.591 204.192C274.591 204.968 273.973 205.597 273.209 205.597H222.617L168.053 261.012C167.794 261.275 167.442 261.422 167.075 261.422H75.4623C74.6986 261.422 74.0795 260.794 74.0795 260.018C74.0795 259.243 74.6986 258.613 75.4623 258.613H166.503L221.066 203.199C221.325 202.936 221.677 202.788 222.044 202.788H273.209ZM277.703 191.553C278.467 191.553 279.086 192.181 279.086 192.957C279.086 193.733 278.467 194.362 277.703 194.362H222.617L178.771 238.892L168.053 249.776C167.794 250.039 167.442 250.187 167.075 250.187H61.9795C61.2158 250.187 60.5967 249.559 60.5967 248.783C60.5967 248.008 61.2158 247.378 61.9795 247.378H166.503L168.351 245.5H171V242.81L174.454 239.303L171 239.303V236.494L177.221 236.494L185.517 228.068L171 228.068V225.259L188.283 225.259L202.191 211.135C211.1 207.083 217.148 200.941 220.336 192.708L221.066 191.964C221.325 191.7 221.677 191.553 222.044 191.553H277.703ZM153.5 239.303H140V236.494H153.5V239.303ZM122 239.303L116.948 239.303C116.184 239.303 115.565 238.674 115.565 237.899C115.565 237.123 116.184 236.494 116.948 236.494L122 236.494V239.303ZM122 221.3V228.068L119.249 228.068L108.591 238.892C108.332 239.155 107.98 239.303 107.613 239.303H51.6082C50.8445 239.303 50.2254 238.674 50.2254 237.899C50.2254 237.123 50.8445 236.494 51.6082 236.494H107.041L117.698 225.67L122 221.3ZM153.5 225.259V228.068H140V225.259H153.5ZM107.613 225.259C108.377 225.259 108.996 225.888 108.996 226.664C108.996 227.439 108.377 228.068 107.613 228.068H42.274C41.5103 228.068 40.8912 227.439 40.8912 226.664C40.8912 225.888 41.5103 225.259 42.274 225.259H107.613ZM153.5 217V217.183H140V217H153.5ZM190.906 214.823C191.135 215.074 191.275 215.41 191.275 215.779C191.275 216.555 190.657 217.183 189.893 217.183L171 217.183V217L172.035 216.976C178.899 216.792 185.069 216.102 190.547 214.904L190.906 214.823ZM87.438 214.374L87 217L119.356 217.002C119.155 217.117 118.923 217.183 118.676 217.183H35.3598C34.5961 217.183 33.977 216.555 33.977 215.779C33.977 215.004 34.5961 214.374 35.3598 214.374L87.438 214.374ZM109.5 181.019V183.828L58.7651 183.828L51.4446 191.553L109.425 191.553C109.234 192.813 108.692 193.715 107.917 194.362L48.7827 194.362L40.7967 202.788L89.369 202.787L88.901 205.596L38.1348 205.597L32.5534 211.486C32.0237 212.045 31.1483 212.063 30.5981 211.524C30.0477 210.986 30.0311 210.097 30.5607 209.538L36.5501 203.219L47.198 191.984L57.1804 181.45C57.4411 181.175 57.8008 181.019 58.1767 181.019L109.5 181.019ZM109.5 170.135V172.944L58.7356 172.944L28.7149 202.394C28.1655 202.932 27.2901 202.917 26.7596 202.359C26.229 201.801 26.2441 200.912 26.7934 200.373L57.216 170.53C57.4739 170.277 57.8184 170.135 58.1767 170.135L109.5 170.135ZM173.249 191.552C169.788 192.714 165.739 193.65 161.1 194.362L152.778 194.362L151.708 195.434C150.338 195.544 148.931 195.639 147.485 195.72L151.239 191.957C151.497 191.698 151.846 191.553 152.21 191.553L173.249 191.552ZM140 191.552L140.997 191.553C141.762 191.553 142.381 192.181 142.381 192.957C142.381 193.733 141.762 194.362 140.997 194.362L140 194.361V191.552ZM109.5 159.25V162.059L58.7366 162.059L26.2962 193.966C25.7476 194.505 24.8721 194.491 24.3408 193.934C23.8095 193.377 23.8235 192.488 24.3722 191.948L57.2148 159.647C57.4727 159.393 57.8176 159.251 58.1767 159.251L109.5 159.25ZM109.5 148.718V151.526L58.7415 151.527L23.8823 186.236C23.337 186.778 22.4614 186.77 21.9268 186.216C21.3921 185.662 21.4007 184.773 21.9462 184.23L57.2087 149.119C57.4672 148.862 57.8147 148.718 58.1767 148.718L109.5 148.718ZM187.371 181.02C186.934 182.005 186.37 182.941 185.68 183.829L140 183.828V181.019L187.371 181.02ZM280.815 181.019C281.579 181.019 282.198 181.649 282.198 182.424C282.198 183.2 281.579 183.828 280.815 183.828L222.563 183.829C222.686 182.912 222.783 181.976 222.854 181.021L280.815 181.019ZM187.414 170.135C187.809 171.025 188.096 171.962 188.276 172.945L140 172.944V170.135L187.414 170.135ZM25.3342 170.135C26.0979 170.135 26.717 170.764 26.717 171.54C26.717 172.315 26.0979 172.944 25.3342 172.944H19.1114C18.3477 172.944 17.7285 172.315 17.7285 171.54C17.7285 170.764 18.3477 170.135 19.1114 170.135H25.3342ZM282.543 170.135C283.307 170.135 283.926 170.764 283.926 171.54C283.926 172.315 283.307 172.944 282.543 172.944H230.686C229.923 172.944 229.303 172.315 229.303 171.54C229.303 170.764 229.923 170.135 230.686 170.135H282.543ZM209.802 148.718L284.272 148.718C285.035 148.718 285.655 149.346 285.655 150.123C285.655 150.898 285.035 151.527 284.272 151.527H241.617L222.593 170.236C222.445 169.079 222.257 167.96 222.03 166.879L237.641 151.527L213.632 151.526C212.464 150.487 211.188 149.551 209.802 148.718ZM169.181 159.251C172.731 159.975 175.791 160.911 178.362 162.059L140 162.059V159.25L169.181 159.251ZM37.5465 159.251C38.3102 159.251 38.9293 159.88 38.9293 160.655C38.9293 161.431 38.3102 162.059 37.5465 162.059H19.1114C18.3477 162.059 17.7285 161.431 17.7285 160.655C17.7285 159.88 18.3477 159.251 19.1114 159.251H37.5465ZM284.272 159.251C285.035 159.251 285.655 159.88 285.655 160.655C285.655 161.431 285.035 162.059 284.272 162.059H241.058C240.294 162.059 239.675 161.431 239.675 160.655C239.675 159.88 240.294 159.251 241.058 159.251H284.272ZM219.465 159.263C220.141 159.356 220.661 159.944 220.661 160.655C220.661 160.947 220.573 161.218 220.423 161.442C220.161 160.774 219.879 160.126 219.577 159.497L219.465 159.263ZM48.1944 148.718C48.9581 148.718 49.5772 149.346 49.5772 150.123C49.5772 150.898 48.9581 151.527 48.1944 151.527H17.3829C16.6191 151.527 16 150.898 16 150.123C16 149.346 16.6191 148.718 17.3829 148.718H48.1944ZM105.539 138.887C106.303 138.887 106.922 139.516 106.922 140.292C106.922 141.067 106.303 141.696 105.539 141.696H17.3829C16.6191 141.696 16 141.067 16 140.292C16 139.516 16.6191 138.887 17.3829 138.887H105.539ZM140 118.53L157.277 136.078L168.985 136.078C165.845 137.3 162.062 138.236 157.636 138.887L140 138.887V136.077L140.974 136.078L140 135.061V131.033L144.833 136.078H153.366L140 122.504V118.53ZM208.143 136.078L284.617 136.078C285.381 136.078 286 136.707 286 137.483C286 138.258 285.381 138.887 284.617 138.887L206.047 138.888C206.808 138.024 207.507 137.088 208.143 136.078ZM93.785 117.119C94.1414 117.119 94.4839 117.258 94.7413 117.509L109.5 131.86V135.748L93.2298 119.928H21.1857C20.4219 119.928 19.8028 119.298 19.8028 118.523C19.8028 117.747 20.4219 117.119 21.1857 117.119H93.785ZM164.31 117.82C164.694 117.82 165.061 117.982 165.323 118.267L174.246 128.003L179.135 128.003C178.629 129.002 177.984 129.938 177.198 130.812L173.645 130.811C173.261 130.811 172.894 130.649 172.632 130.364L163.708 120.629H149.79C149.027 120.629 148.407 120.001 148.407 119.225C148.407 118.45 149.027 117.82 149.79 117.82H164.31ZM211.283 106.233L257.998 106.234C258.358 106.234 258.703 106.376 258.961 106.631L270.715 118.218L270.73 118.232L280.35 128.003H283.58C284.344 128.003 284.963 128.632 284.963 129.407C284.963 130.183 284.344 130.811 283.58 130.811L210.668 130.812C210.992 129.901 211.283 128.95 211.54 127.96L211.579 128.003H276.44L269.18 120.629L212.763 120.63C212.844 119.717 212.904 118.781 212.943 117.821L266.342 117.82L257.437 109.043L212.25 109.042C211.994 108.077 211.671 107.141 211.283 106.233ZM93.785 127.651C94.5487 127.651 95.1678 128.281 95.1678 129.056C95.1678 129.832 94.5487 130.46 93.785 130.46H19.1114C18.3477 130.46 17.7285 129.832 17.7285 129.056C17.7285 128.281 18.3477 127.651 19.1114 127.651H93.785ZM93.785 104.829C94.149 104.829 94.4984 104.975 94.7573 105.236L109.5 120.039V123.99L93.2167 107.638H25.3342C24.5705 107.638 23.9514 107.01 23.9514 106.234C23.9514 105.459 24.5705 104.829 25.3342 104.829H93.785ZM282.198 117.82C282.962 117.82 283.58 118.45 283.58 119.225C283.58 120.001 282.962 120.629 282.198 120.629H278.741C277.977 120.629 277.357 120.001 277.357 119.225C277.357 118.45 277.977 117.82 278.741 117.82H282.198ZM98.891 103.5H99.5L99.7162 103.503C100.927 103.54 102.302 103.883 103.631 104.466L109.422 110.61C109.473 110.901 109.5 111.198 109.5 111.5V114.756L98.891 103.5ZM159.828 106.233C164.158 106.842 167.808 107.779 170.778 109.043L140 109.042V106.233L159.828 106.233ZM279.778 105.532C280.541 105.532 281.161 106.161 281.161 106.937C281.161 107.712 280.541 108.341 279.778 108.341H269.06C268.297 108.341 267.677 107.712 267.677 106.937C267.677 106.161 268.297 105.532 269.06 105.532H279.778ZM193.004 85.5189C193.371 85.5189 193.722 85.6669 193.982 85.9302L204.294 96.4031H274.591C275.356 96.4031 275.974 97.032 275.974 97.8076C275.974 98.5832 275.356 99.212 274.591 99.212L206.415 99.2123C203.916 96.7511 200.704 94.595 196.781 92.744L192.432 88.3278L183.807 88.327C179.925 87.3854 175.656 86.6098 171 86V85.518L193.004 85.5189ZM87 97.456L27.7542 97.4565C26.9905 97.4565 26.3714 96.8277 26.3714 96.0521C26.3714 95.2764 26.9905 94.6477 27.7542 94.6477L87 94.647V97.456ZM200.264 74.2835C200.616 74.2835 200.955 74.4201 201.212 74.6652L212.566 85.5189H269.752C270.515 85.5189 271.135 86.1477 271.135 86.9233C271.135 87.6989 270.515 88.3278 269.752 88.3278H212.019C211.666 88.3278 211.327 88.1912 211.07 87.946L199.716 77.0924L171 77.092V74.283L200.264 74.2835ZM93.785 83.4123C94.1582 83.4123 94.5157 83.5656 94.776 83.8372L96.849 86H87V86.221L33.6312 86.2211C32.9125 86.2211 32.3218 85.6641 32.2547 84.9519L32.2484 84.8167C32.2484 84.0411 32.8675 83.4123 33.6312 83.4123H93.785ZM95.8592 74.2835C96.2261 74.2835 96.5777 74.4315 96.837 74.6949L107.969 86H104.057L95.2865 77.0924H41.5826C40.8189 77.0924 40.1998 76.4635 40.1998 75.6879C40.1998 74.9123 40.8189 74.2835 41.5826 74.2835H95.8592ZM122 85.518V86L115.215 85.9995C115.468 85.7049 115.841 85.5189 116.256 85.5189L122 85.518ZM153.5 85.518V86H140V85.518H153.5ZM153.5 77.092H140V74.283H153.5V77.092ZM122 77.092L106.576 77.0924C105.813 77.0924 105.193 76.4635 105.193 75.6879C105.193 74.9123 105.813 74.2835 106.576 74.2835L122 74.283V77.092ZM263.529 74.2835C264.293 74.2835 264.912 74.9123 264.912 75.6879C264.912 76.4635 264.293 77.0924 263.529 77.0924H212.019C211.255 77.0924 210.636 76.4635 210.636 75.6879C210.636 74.9123 211.255 74.2835 212.019 74.2835H263.529ZM255.578 62.6971C256.341 62.6971 256.961 63.3259 256.961 64.1015C256.961 64.8771 256.341 65.5059 255.578 65.5059H193.004C192.24 65.5059 191.621 64.8771 191.621 64.1015C191.621 63.3259 192.24 62.6971 193.004 62.6971H255.578ZM122 62.697V65.505L49.8797 65.5059C49.1609 65.5059 48.5701 64.9489 48.5031 64.2367L48.4968 64.1015C48.4968 63.3259 49.116 62.6971 49.8797 62.6971L122 62.697ZM153.5 62.697V65.505H140V62.697H153.5ZM213.481 29.7331C214.032 29.1961 214.908 29.2144 215.436 29.774C215.965 30.3338 215.946 31.2227 215.396 31.7599L181.17 65.1148C180.913 65.3658 180.57 65.5059 180.213 65.5059L171 65.505V62.697L179.656 62.6971L213.481 29.7331ZM245.206 51.4617C245.97 51.4617 246.589 52.0905 246.589 52.8661C246.589 53.6417 245.97 54.2705 245.206 54.2705H203.721C202.958 54.2705 202.338 53.6417 202.338 52.8661C202.338 52.0905 202.958 51.4617 203.721 51.4617H245.206ZM205.516 25.5336C206.059 24.9888 206.935 24.9946 207.471 25.5467C208.008 26.0988 208.002 26.9881 207.458 27.5328L181.184 53.8657C180.926 54.1251 180.577 54.2705 180.213 54.2705H59.9053C59.1416 54.2705 58.5225 53.6417 58.5225 52.8661C58.5225 52.0905 59.1416 51.4617 59.9053 51.4617H179.645L205.516 25.5336ZM232.415 40.5774C233.179 40.5774 233.798 41.2062 233.798 41.9818C233.798 42.7575 233.179 43.3863 232.415 43.3863H214.438C213.674 43.3863 213.055 42.7575 213.055 41.9818C213.055 41.2062 213.674 40.5774 214.438 40.5774H232.415ZM197.549 22.0384C198.083 21.4848 198.959 21.4765 199.504 22.0198C200.05 22.5631 200.058 23.4523 199.522 24.0059L181.199 42.9656C180.94 43.2347 180.584 43.3863 180.213 43.3863H72.6967C71.9329 43.3863 71.3137 42.7575 71.3137 41.9818C71.3137 41.2062 71.9329 40.5774 72.6967 40.5774H179.632L197.549 22.0384ZM190.298 18.518C190.838 17.9696 191.714 17.9696 192.253 18.518C192.794 19.0665 192.794 19.9557 192.253 20.5042L181.19 31.7396C180.932 32.0029 180.58 32.1509 180.213 32.1509H89.6365C88.8727 32.1509 88.2536 31.5222 88.2536 30.7464C88.2536 29.9708 88.8727 29.342 89.6365 29.342H179.64L190.298 18.518ZM180.879 16.5054C181.368 15.9095 182.24 15.829 182.827 16.3256C183.414 16.8221 183.493 17.7077 183.003 18.3035L181.275 20.4102C181.012 20.7304 180.623 20.9156 180.213 20.9156H116.256C115.493 20.9156 114.873 20.2868 114.873 19.5111C114.873 18.7354 115.493 18.1067 116.256 18.1067H179.565L180.879 16.5054Z"
          fill="white"/>
    <path d="M177 51V80.83L177.941 80.9919C204.329 85.6371 218.689 96.636 218.995 114.418L219 115C219 126.61 216.401 135.799 211.132 142.196L210.904 142.468L211.116 142.577C222.736 148.639 228.84 160.161 228.997 176.358L229 177C229 204.912 211.102 220.355 177.7 222.708L177 222.754V251.5H147.5V223H146V251.5H116V223H79.9172L85.4172 190L100.257 189.999L100.782 189.995L101.391 189.983L101.942 189.963L102.436 189.935L102.874 189.899C102.942 189.893 103.008 189.886 103.072 189.879L103.427 189.833L103.5 189.821V111.651C103.495 111.655 103.491 111.652 103.487 111.647L103.397 111.519C103.21 111.27 102.903 110.975 102.498 110.685C101.489 109.959 100.193 109.5 99.5 109.5H81V80H116V51.5H146V80H147.5V51H177ZM171 57H153.5V86H140V57.5H122V86H87V103.5H99.5L99.7162 103.503C103.712 103.625 109.5 107.08 109.5 111.5V190.5L109.496 190.761C109.388 194.019 107.261 195.251 104.603 195.717L104.18 195.784C104.037 195.805 103.893 195.823 103.748 195.84L103.311 195.885C103.237 195.892 103.164 195.898 103.09 195.904L102.645 195.936L102.198 195.959L101.749 195.976L101.299 195.988L100.396 195.998L90.5 196L87 217H122V245.5H140V217H153.5V245.5H171V217L172.035 216.976C206.012 216.065 223 202.74 223 177C223 158.333 214.667 147.5 198 144.5C208 140.5 213 130.667 213 115C213 99.3333 199 89.6667 171 86V57ZM147.377 151.394L148.979 151.406L150.552 151.432C162.242 151.674 171.519 153.048 178.463 155.625C188.716 159.43 194.5 166.228 194.5 175.5C194.5 184.676 188.839 191.621 178.711 195.902C172.142 198.678 163.457 200.485 152.596 201.382L151.03 201.504C150.766 201.523 150.501 201.542 150.235 201.561L148.625 201.664C146.457 201.794 144.21 201.891 141.883 201.956L140.124 201.999L134 202.125V151.683L139.815 151.503L141.546 151.455C143.548 151.408 145.492 151.387 147.377 151.394ZM188.5 175.5C188.5 162.76 172.974 156.743 141.921 157.448L140 157.5V196C172.333 195.333 188.5 188.5 188.5 175.5ZM140.568 99.4765C154.455 99.0209 165.093 100.244 172.639 103.318C181.521 106.937 186.5 113.392 186.5 122C186.5 130.545 181.601 137.077 172.812 140.983C165.152 144.387 154.265 146 140 146H134V99.7181L140.568 99.4765ZM146.962 105.388C144.751 105.373 142.43 105.41 140 105.5V140C167 140 180.5 134 180.5 122C180.5 112.52 172.075 107.097 155.224 105.73L153.928 105.634C152.178 105.516 150.342 105.44 148.42 105.406L146.962 105.388Z"
          fill="white"/>
    <path d="M151 0C67.605 0 0 67.605 0 151C0 234.395 67.605 302 151 302C234.395 302 302 234.395 302 151C302 67.605 234.395 0 151 0ZM151 6C231.081 6 296 70.9187 296 151C296 231.081 231.081 296 151 296C70.9187 296 6 231.081 6 151C6 70.9187 70.9187 6 151 6Z"
          fill="white"/>
    <path d="M151 10C73.1279 10 10 73.1279 10 151C10 228.872 73.1279 292 151 292C228.872 292 292 228.872 292 151C292 73.1279 228.872 10 151 10ZM151 13C227.215 13 289 74.7847 289 151C289 227.215 227.215 289 151 289C74.7847 289 13 227.215 13 151C13 74.7847 74.7847 13 151 13Z"
          fill="white"/>
</svg>
