<svg width="80" height="80" viewBox="0 0 80 80" fill="none" xmlns="http://www.w3.org/2000/svg">
    <g opacity="0.5">
        <mask id="mask0" mask-type="alpha" maskUnits="userSpaceOnUse" x="0" y="0" width="81" height="80">
            <path d="M41.0748 26.5165C38.9442 26.5165 35.375 26.5165 35.375 26.5165V37.7504H44.3404V42.4543H35.375V53.6883C35.375 53.6883 39.8159 53.6883 41.3511 53.6883C42.887 53.6883 53.9605 53.8617 53.9437 40.6176C53.9268 27.3741 43.2051 26.5165 41.0748 26.5165Z"
                  fill="white"/>
            <path d="M40.1176 0.23291C18.0903 0.23291 0.233887 18.0893 0.233887 40.1163C0.233887 62.1436 18.0903 80 40.1176 80C62.1442 80 80.0006 62.1436 80.0006 40.1163C80.0006 18.0893 62.1442 0.23291 40.1176 0.23291ZM41.6847 61.6574H27.2403V42.455H22.1489V37.7512H27.24V18.5478C27.24 18.5478 36.7039 18.5478 39.6366 18.5478C42.5694 18.5478 61.9936 17.9387 61.9936 40.4628C61.9936 63.3593 41.6847 61.6574 41.6847 61.6574Z"
                  fill="white"/>
        </mask>
        <g mask="url(#mask0)">
            <path fill-rule="evenodd" clip-rule="evenodd"
                  d="M48.715 4.26394C48.8503 4.10153 48.8284 3.86017 48.666 3.72484C48.5036 3.5895 48.2622 3.61144 48.1269 3.77385L47.7632 4.21028H30.2393C30.0279 4.21028 29.8565 4.38165 29.8565 4.59305C29.8565 4.80445 30.0279 4.97582 30.2393 4.97582H47.9425C48.0561 4.97582 48.1638 4.92536 48.2365 4.83809L48.715 4.26394ZM51.2753 4.32239C51.1259 4.17291 50.8835 4.17291 50.734 4.32239L47.7839 7.27246H22.8709C22.6595 7.27246 22.4881 7.44383 22.4881 7.65523C22.4881 7.86663 22.6595 8.038 22.8709 8.038H47.9425C48.044 8.038 48.1414 7.99767 48.2132 7.92589L51.2753 4.86371C51.4248 4.71423 51.4248 4.47187 51.2753 4.32239ZM53.2874 5.8181C53.4355 5.66723 53.4332 5.42488 53.2823 5.2768C53.1315 5.12872 52.8891 5.13099 52.7411 5.28186L47.7818 10.3346H18.1819C17.9705 10.3346 17.7992 10.506 17.7992 10.7174C17.7992 10.9288 17.9705 11.1002 18.1819 11.1002H47.9425C48.0453 11.1002 48.1437 11.0589 48.2157 10.9855L53.2874 5.8181ZM55.484 6.77936C55.6345 6.63087 55.6361 6.38852 55.4876 6.23805C55.3391 6.08758 55.0968 6.08597 54.9463 6.23446L47.7854 13.3011H14.6413C14.4299 13.3011 14.2585 13.4725 14.2585 13.6839C14.2585 13.8953 14.4299 14.0667 14.6413 14.0667H47.9425C48.0431 14.0667 48.1397 14.027 48.2114 13.9563L55.484 6.77936ZM57.6811 7.93141C57.8337 7.78504 57.8387 7.54274 57.6923 7.3902C57.5459 7.23767 57.3036 7.23268 57.1511 7.37905L47.7885 16.3633H11.8662C11.6548 16.3633 11.4834 16.5347 11.4834 16.7461C11.4834 16.9575 11.6548 17.1288 11.8662 17.1288H47.9425C48.0413 17.1288 48.1362 17.0907 48.2075 17.0223L57.6811 7.93141ZM57.4161 10.3346C57.2047 10.3346 57.0333 10.506 57.0333 10.7174C57.0333 10.9288 57.2047 11.1002 57.4161 11.1002H62.3922C62.6036 11.1002 62.7749 10.9288 62.7749 10.7174C62.7749 10.506 62.6036 10.3346 62.3922 10.3346H57.4161ZM54.4496 13.3011C54.2382 13.3011 54.0669 13.4725 54.0669 13.6839C54.0669 13.8953 54.2382 14.0667 54.4496 14.0667H65.9328C66.1442 14.0667 66.3156 13.8953 66.3156 13.6839C66.3156 13.4725 66.1442 13.3011 65.9328 13.3011H54.4496ZM51.4831 16.3633C51.2717 16.3633 51.1004 16.5347 51.1004 16.7461C51.1004 16.9575 51.2717 17.1288 51.4831 17.1288H68.8036C69.015 17.1288 69.1864 16.9575 69.1864 16.7461C69.1864 16.5347 69.015 16.3633 68.8036 16.3633H51.4831ZM9.56957 19.5212C9.35817 19.5212 9.1868 19.6925 9.1868 19.9039C9.1868 20.1153 9.35817 20.2867 9.56957 20.2867H24.4348L40.5113 36.3632H38.1495L24.2935 22.125C24.2215 22.051 24.1225 22.0092 24.0192 22.0092H7.36863C7.15723 22.0092 6.98586 22.1806 6.98586 22.392C6.98586 22.6034 7.15723 22.7747 7.36863 22.7747H23.8576L37.0812 36.3632H34.9919L24.2957 25.1895C24.2235 25.114 24.1236 25.0714 24.0192 25.0714H5.74185C5.53045 25.0714 5.35907 25.2427 5.35907 25.4541C5.35907 25.6655 5.53045 25.8369 5.74185 25.8369H23.8558L33.9322 36.3632H32.79L24.2884 27.9571C24.2167 27.8862 24.12 27.8465 24.0192 27.8465H5.07199C4.8606 27.8465 4.68922 28.0178 4.68922 28.2292C4.68922 28.4406 4.8606 28.612 5.07199 28.612H23.8619L32.2668 36.9224C32.2827 36.9381 32.2996 36.9522 32.3174 36.9646C32.3865 37.0638 32.5015 37.1287 32.6316 37.1287H41.4354H76.8418C77.0532 37.1287 77.2246 36.9573 77.2246 36.7459C77.2246 36.5345 77.0532 36.3632 76.8418 36.3632H41.5939L24.864 19.6333C24.7923 19.5615 24.6949 19.5212 24.5934 19.5212H9.56957ZM27.5599 19.5212C27.3485 19.5212 27.1771 19.6925 27.1771 19.9039C27.1771 20.1153 27.3485 20.2867 27.5599 20.2867H53.3409L56.4839 23.2449C56.5549 23.3117 56.6488 23.3489 56.7463 23.3489H72.727C72.9384 23.3489 73.1098 23.1775 73.1098 22.9661C73.1098 22.7547 72.9384 22.5834 72.727 22.5834H56.8981L53.755 19.6252C53.684 19.5584 53.5902 19.5212 53.4927 19.5212H27.5599ZM56.7463 19.5212C56.5349 19.5212 56.3635 19.6925 56.3635 19.9039C56.3635 20.1153 56.5349 20.2867 56.7463 20.2867H71.0045C71.2159 20.2867 71.3873 20.1153 71.3873 19.9039C71.3873 19.6925 71.2159 19.5212 71.0045 19.5212H56.7463ZM30.2393 22.5834C30.0279 22.5834 29.8565 22.7547 29.8565 22.9661C29.8565 23.1775 30.0279 23.3489 30.2393 23.3489H51.3246L54.179 26.2033C54.2508 26.2751 54.3481 26.3154 54.4496 26.3154H74.0667C74.2781 26.3154 74.4495 26.144 74.4495 25.9326C74.4495 25.7212 74.2781 25.5498 74.0667 25.5498H54.6082L51.7538 22.6955C51.682 22.6237 51.5847 22.5834 51.4831 22.5834H30.2393ZM33.4928 25.5498C33.2814 25.5498 33.1101 25.7212 33.1101 25.9326C33.1101 26.144 33.2814 26.3154 33.4928 26.3154H49.716L52.7715 28.9041L56.4988 32.0619C56.568 32.1205 56.6556 32.1527 56.7463 32.1527H72.5685L74.578 34.1622H56.6248L53.7717 31.125C53.6993 31.048 53.5984 31.0043 53.4927 31.0043H50.0149L47.3519 28.3414C47.2801 28.2696 47.1828 28.2292 47.0813 28.2292H36.6507C36.4393 28.2292 36.2679 28.4006 36.2679 28.612C36.2679 28.8234 36.4393 28.9948 36.6507 28.9948H46.9227L49.5857 31.6578C49.6575 31.7296 49.7548 31.7699 49.8564 31.7699H53.3271L55.5744 34.1622H46.2909L43.8208 31.5091C43.7484 31.4313 43.6469 31.3871 43.5406 31.3871H39.5215C39.3101 31.3871 39.1387 31.5585 39.1387 31.7699C39.1387 31.9813 39.3101 32.1527 39.5215 32.1527H43.374L45.8442 34.8058C45.9166 34.8836 46.0181 34.9278 46.1243 34.9278H56.4592H75.5021H76.5547C76.7661 34.9278 76.9375 34.7564 76.9375 34.545C76.9375 34.3336 76.7661 34.1622 76.5547 34.1622H75.6607L72.9977 31.4992L72.9936 31.4952L69.74 28.3373C69.6686 28.268 69.573 28.2292 69.4734 28.2292H53.1593L50.1038 25.6406C50.0346 25.582 49.947 25.5498 49.8564 25.5498H33.4928ZM69.3182 28.9948L71.783 31.3871H56.8866L54.0629 28.9948H69.3182ZM72.5356 28.0379C72.3242 28.0379 72.1528 28.2092 72.1528 28.4206C72.1528 28.632 72.3242 28.8034 72.5356 28.8034H75.5021C75.7135 28.8034 75.8849 28.632 75.8849 28.4206C75.8849 28.2092 75.7135 28.0379 75.5021 28.0379H72.5356ZM75.215 32.1527H76.172C76.3834 32.1527 76.5547 31.9813 76.5547 31.7699C76.5547 31.5585 76.3834 31.3871 76.172 31.3871H75.215C75.0036 31.3871 74.8323 31.5585 74.8323 31.7699C74.8323 31.9813 75.0036 32.1527 75.215 32.1527ZM3.92368 31.1957C3.71228 31.1957 3.54091 31.3671 3.54091 31.5785C3.54091 31.7899 3.71228 31.9613 3.92368 31.9613H23.0623H23.8655L32.0611 39.8081H14.1628C14.0626 39.8081 13.9664 39.8474 13.8949 39.9175L4.13417 49.4869C3.98322 49.6349 3.98082 49.8772 4.12882 50.0282C4.27681 50.1791 4.51916 50.1815 4.67011 50.0335L14.3192 40.5737H33.0144H63.8389L58.6009 45.6454H14.1628C14.0636 45.6454 13.9683 45.6839 13.8969 45.7528L5.47592 53.8868C5.32387 54.0336 5.31967 54.2759 5.46653 54.428C5.6134 54.58 5.85572 54.5843 6.00777 54.4374L14.3175 46.4109H58.7558C58.8552 46.4109 58.9507 46.3723 59.0221 46.3031L64.9394 40.5737H76.7461C76.9575 40.5737 77.1289 40.4023 77.1289 40.1909C77.1289 39.9795 76.9575 39.8081 76.7461 39.8081H64.7845H33.1681L24.2839 31.302C24.2127 31.2338 24.1179 31.1957 24.0192 31.1957H23.0623H3.92368ZM3.34952 34.0665C3.13812 34.0665 2.96675 34.2379 2.96675 34.4493C2.96675 34.6607 3.13812 34.8321 3.34952 34.8321H24.0192C24.2306 34.8321 24.402 34.6607 24.402 34.4493C24.402 34.2379 24.2306 34.0665 24.0192 34.0665H3.34952ZM2.87105 37.1287C2.65965 37.1287 2.48828 37.3001 2.48828 37.5115C2.48828 37.7229 2.65965 37.8942 2.87105 37.8942H27.2728C27.4842 37.8942 27.6556 37.7229 27.6556 37.5115C27.6556 37.3001 27.4842 37.1287 27.2728 37.1287H2.87105ZM2.87105 39.8081C2.65965 39.8081 2.48828 39.9795 2.48828 40.1909C2.48828 40.4023 2.65965 40.5737 2.87105 40.5737H11.3997C11.6111 40.5737 11.7825 40.4023 11.7825 40.1909C11.7825 39.9795 11.6111 39.8081 11.3997 39.8081H2.87105ZM3.34952 42.6789C3.13812 42.6789 2.96675 42.8503 2.96675 43.0617C2.96675 43.2731 3.13812 43.4444 3.34952 43.4444H8.45235C8.66375 43.4444 8.83512 43.2731 8.83512 43.0617C8.83512 42.8503 8.66375 42.6789 8.45235 42.6789H3.34952ZM14.1628 42.6789C14.0634 42.6789 13.968 42.7176 13.8966 42.7867L4.80571 51.5905C4.65385 51.7375 4.64996 51.9799 4.79703 52.1317C4.94409 52.2836 5.18642 52.2875 5.33828 52.1404L14.3178 43.4444H58.7558C58.9672 43.4444 59.1386 43.2731 59.1386 43.0617C59.1386 42.8503 58.9672 42.6789 58.7558 42.6789H14.1628ZM64.7845 42.6789C64.5731 42.6789 64.4017 42.8503 64.4017 43.0617C64.4017 43.2731 64.5731 43.4444 64.7845 43.4444H76.7461C76.9575 43.4444 77.1289 43.2731 77.1289 43.0617C77.1289 42.8503 76.9575 42.6789 76.7461 42.6789H64.7845ZM3.34952 45.6454C3.13812 45.6454 2.96675 45.8168 2.96675 46.0282C2.96675 46.2396 3.13812 46.4109 3.34952 46.4109H5.07199C5.28339 46.4109 5.45477 46.2396 5.45477 46.0282C5.45477 45.8168 5.28339 45.6454 5.07199 45.6454H3.34952ZM61.9137 45.6454C61.7023 45.6454 61.5309 45.8168 61.5309 46.0282C61.5309 46.2396 61.7023 46.4109 61.9137 46.4109H76.2676C76.479 46.4109 76.6504 46.2396 76.6504 46.0282C76.6504 45.8168 76.479 45.6454 76.2676 45.6454H61.9137ZM14.1628 48.6119C14.0588 48.6119 13.9592 48.6542 13.8871 48.7292L11.1239 51.6L8.17657 54.6622L6.51869 56.3847C6.37209 56.537 6.37672 56.7793 6.52903 56.9259C6.68134 57.0725 6.92365 57.0678 7.07025 56.9155L8.6152 55.3104H33.8872C34.0986 55.3104 34.27 55.139 34.27 54.9276C34.27 54.7162 34.0986 54.5448 33.8872 54.5448H9.35204L11.5625 52.2482H37.0878C37.2992 52.2482 37.4706 52.0768 37.4706 51.8654C37.4706 51.654 37.2992 51.4827 37.0878 51.4827H12.2994L14.3257 49.3774H25.1675H56.0764H75.7892C76.0006 49.3774 76.172 49.206 76.172 48.9946C76.172 48.7832 76.0006 48.6119 75.7892 48.6119H56.0764H25.1675H14.1628ZM40.1914 51.4827C40.0907 51.4827 39.9941 51.5223 39.9225 51.593L36.819 54.6551L33.6184 57.813L32.7455 58.6743L32.7437 58.6761L30.6385 60.7813L27.6884 63.7314H12.3447C12.1333 63.7314 11.9619 63.9028 11.9619 64.1141C11.9619 64.3256 12.1333 64.4969 12.3447 64.4969H27.8469C27.9485 64.4969 28.0458 64.4566 28.1176 64.3848L31.0677 61.4347H34.8325H37.8947H49.4107L47.1141 63.7314H44.3062H30.4307C30.2193 63.7314 30.0479 63.9028 30.0479 64.1141C30.0479 64.3256 30.2193 64.4969 30.4307 64.4969H44.3062H46.3485L44.1476 66.6979H15.2155C15.0041 66.6979 14.8327 66.8692 14.8327 67.0806C14.8327 67.292 15.0041 67.4634 15.2155 67.4634H44.3062C44.4077 67.4634 44.505 67.4231 44.5768 67.3513L47.5433 64.3848L59.6799 52.2482H74.9279C75.1393 52.2482 75.3107 52.0768 75.3107 51.8654C75.3107 51.654 75.1393 51.4827 74.9279 51.4827H59.5214C59.4198 51.4827 59.3225 51.523 59.2507 51.5948L50.1763 60.6692H37.8947H34.8325H31.8332L33.2832 59.2192L33.285 59.2174L34.0443 58.4683H48.8994H50.6219C50.8333 58.4683 51.0047 58.2969 51.0047 58.0855C51.0047 57.8741 50.8333 57.7027 50.6219 57.7027H48.8994H34.8202L37.2448 55.3104H51.2918H53.7798C53.9912 55.3104 54.1625 55.139 54.1625 54.9276C54.1625 54.7162 53.9912 54.5448 53.7798 54.5448H51.2918H38.0207L40.3484 52.2482H53.7798H56.842C57.0534 52.2482 57.2247 52.0768 57.2247 51.8654C57.2247 51.654 57.0534 51.4827 56.842 51.4827H53.7798H40.1914ZM59.5214 54.5448C59.4198 54.5448 59.3225 54.5852 59.2507 54.657L44.1476 69.76H18.9475C18.7361 69.76 18.5647 69.9314 18.5647 70.1428C18.5647 70.3542 18.7361 70.5256 18.9475 70.5256H44.3062C44.4077 70.5256 44.505 70.4853 44.5768 70.4135L59.6799 55.3104H73.6839C73.8953 55.3104 74.0667 55.139 74.0667 54.9276C74.0667 54.7162 73.8953 54.5448 73.6839 54.5448H59.5214ZM7.84709 57.7027C7.63569 57.7027 7.46432 57.8741 7.46432 58.0855C7.46432 58.2969 7.63569 58.4683 7.84709 58.4683H30.9091C31.1205 58.4683 31.2919 58.2969 31.2919 58.0855C31.2919 57.8741 31.1205 57.7027 30.9091 57.7027H7.84709ZM59.5214 57.7027C59.4192 57.7027 59.3212 57.7436 59.2493 57.8162L40.6849 76.5721C40.5361 76.7223 40.5374 76.9647 40.6876 77.1134C40.8379 77.2621 41.0802 77.2608 41.2289 77.1106L59.6811 58.4683H71.9615C72.1729 58.4683 72.3442 58.2969 72.3442 58.0855C72.3442 57.8741 72.1729 57.7027 71.9615 57.7027H59.5214ZM9.76096 60.6692C9.54956 60.6692 9.37818 60.8406 9.37818 61.052C9.37818 61.2634 9.54956 61.4347 9.76096 61.4347H27.8469C28.0583 61.4347 28.2297 61.2634 28.2297 61.052C28.2297 60.8406 28.0583 60.6692 27.8469 60.6692H9.76096ZM59.5214 60.6692C59.4202 60.6692 59.3232 60.7092 59.2515 60.7805L43.3665 76.5699C43.2165 76.7189 43.2158 76.9612 43.3648 77.1112C43.5139 77.2611 43.7562 77.2618 43.9061 77.1128L59.6792 61.4347H70.239C70.4504 61.4347 70.6218 61.2634 70.6218 61.052C70.6218 60.8406 70.4504 60.6692 70.239 60.6692H59.5214ZM59.5214 63.7314C59.4209 63.7314 59.3244 63.7709 59.2528 63.8414L47.0041 75.8987C46.8535 76.047 46.8516 76.2894 46.9999 76.44C47.1482 76.5907 47.3905 76.5926 47.5412 76.4443L59.6782 64.4969H67.8467C68.0581 64.4969 68.2294 64.3256 68.2294 64.1141C68.2294 63.9028 68.0581 63.7314 67.8467 63.7314H59.5214ZM59.5214 66.6979C59.4182 66.6979 59.3194 66.7395 59.2474 66.8133L51.5919 74.6602C51.4443 74.8115 51.4473 75.0538 51.5986 75.2014C51.7499 75.3491 51.9923 75.3461 52.1399 75.1948L59.6827 67.4634H64.7845C64.9959 67.4634 65.1673 67.292 65.1673 67.0806C65.1673 66.8692 64.9959 66.6979 64.7845 66.6979H59.5214ZM59.5214 69.76C59.4153 69.76 59.3139 69.8041 59.2415 69.8816L56.5621 72.7524C56.4179 72.907 56.4262 73.1492 56.5808 73.2934C56.7353 73.4377 56.9775 73.4293 57.1218 73.2748L59.6877 70.5256H61.1481C61.3595 70.5256 61.5309 70.3542 61.5309 70.1428C61.5309 69.9314 61.3595 69.76 61.1481 69.76H59.5214ZM24.0192 72.6308C23.8078 72.6308 23.6365 72.8022 23.6365 73.0136C23.6365 73.225 23.8078 73.3964 24.0192 73.3964H40.9569C41.1683 73.3964 41.3397 73.225 41.3397 73.0136C41.3397 72.8022 41.1683 72.6308 40.9569 72.6308H24.0192Z"
                  fill="black"/>
        </g>
        <path fill-rule="evenodd" clip-rule="evenodd"
              d="M39.9997 79.2339C61.6681 79.2339 79.2339 61.6681 79.2339 39.9997C79.2339 18.3313 61.6681 0.765545 39.9997 0.765545C18.3313 0.765545 0.765545 18.3313 0.765545 39.9997C0.765545 61.6681 18.3313 79.2339 39.9997 79.2339ZM39.9997 79.9994C62.0909 79.9994 79.9994 62.0909 79.9994 39.9997C79.9994 17.9085 62.0909 0 39.9997 0C17.9085 0 0 17.9085 0 39.9997C0 62.0909 17.9085 79.9994 39.9997 79.9994Z"
              fill="black"/>
        <path fill-rule="evenodd" clip-rule="evenodd"
              d="M40.1918 77.3198C60.8032 77.3198 77.5121 60.611 77.5121 39.9995C77.5121 19.3881 60.8032 2.67924 40.1918 2.67924C19.5804 2.67924 2.8715 19.3881 2.8715 39.9995C2.8715 60.611 19.5804 77.3198 40.1918 77.3198ZM40.1918 78.0854C61.226 78.0854 78.2777 61.0338 78.2777 39.9995C78.2777 18.9653 61.226 1.9137 40.1918 1.9137C19.1576 1.9137 2.10596 18.9653 2.10596 39.9995C2.10596 61.0338 19.1576 78.0854 40.1918 78.0854Z"
              fill="black"/>
        <path fill-rule="evenodd" clip-rule="evenodd"
              d="M35.1833 25.6466V26.3246V37.5585H44.1487V42.2624H35.1833V53.4963V54.1743H34.5054V41.5844H43.4708V38.2365H34.5054V25.6466H35.1833ZM35.1833 53.4963V54.1743H41.1594C41.1794 54.1743 41.201 54.1743 41.2242 54.1744C42.1019 54.1757 45.3202 54.1807 48.3624 52.5228C49.936 51.6653 51.4651 50.362 52.5955 48.3928C53.7248 46.4254 54.4343 43.8315 54.43 40.4248C54.4213 33.5833 51.6278 29.8366 48.4732 27.8363C45.3694 25.8682 42.0079 25.6466 40.8832 25.6466H35.1833V26.3246H40.8832C43.0134 26.3246 53.7352 27.1822 53.752 40.4256C53.7687 53.5121 42.9574 53.4986 41.2183 53.4964C41.1974 53.4964 41.1777 53.4963 41.1594 53.4963H35.1833Z"
              fill="black"/>
        <path fill-rule="evenodd" clip-rule="evenodd"
              d="M27.05 18.3589C27.05 17.681 27.0501 17.681 27.0501 17.681H39.4467C39.5145 17.681 39.5915 17.6806 39.6774 17.6802C41.4362 17.6722 46.8981 17.6474 52.033 20.2659C54.7391 21.6459 57.362 23.7627 59.3041 26.9985C61.2455 30.2329 62.4816 34.5439 62.4816 40.2739C62.4816 46.1002 61.1887 50.4164 59.2061 53.6032C57.223 56.7907 54.5771 58.8043 51.9426 60.0686C49.3135 61.3303 46.6937 61.8475 44.7382 62.051C43.7588 62.153 42.941 62.1768 42.3652 62.1749C42.0772 62.174 41.8493 62.1666 41.6916 62.1593C41.6127 62.1556 41.5513 62.152 41.5087 62.1492C41.4965 62.1484 41.4859 62.1477 41.4768 62.147C41.4741 62.1469 41.4715 62.1467 41.469 62.1465H26.3724V42.9441H21.281V36.8844H26.3721V17.681H27.0501L27.05 18.3589ZM39.4467 18.3589C39.5138 18.3589 39.5895 18.3586 39.6734 18.3583C43.258 18.3432 61.8037 18.2651 61.8037 40.2739C61.8037 63.1705 41.4948 61.4685 41.4948 61.4685H27.0504V42.2662H21.9589V37.5623H27.05V18.3589H39.4467ZM39.9276 0.722029C18.2747 0.722029 0.721907 18.2749 0.721907 39.9274C0.721907 61.5803 18.2747 79.1332 39.9276 79.1332C61.5798 79.1332 79.1327 61.5803 79.1327 39.9274C79.1327 18.2749 61.5798 0.722029 39.9276 0.722029ZM0.0439453 39.9274C0.0439453 17.9004 17.9003 0.0440674 39.9276 0.0440674C61.9543 0.0440674 79.8106 17.9004 79.8106 39.9274C79.8106 61.9547 61.9543 79.8111 39.9276 79.8111C17.9003 79.8111 0.0439453 61.9547 0.0439453 39.9274Z"
              fill="black"/>
    </g>
</svg>
