<svg width="302" height="302" viewBox="0 0 302 302" fill="none" xmlns="http://www.w3.org/2000/svg">
    <path fill-rule="evenodd" clip-rule="evenodd"
          d="M260.763 225.259C261.527 225.259 262.146 225.888 262.146 226.664C262.146 227.439 261.527 228.068 260.763 228.068H222.614L165.63 285.591C165.089 286.138 164.214 286.136 163.675 285.586C163.137 285.035 163.14 284.146 163.681 283.599L221.069 225.668C221.328 225.406 221.678 225.259 222.044 225.259H260.763ZM266.986 214.374C267.75 214.374 268.369 215.004 268.369 215.779C268.369 216.555 267.75 217.183 266.986 217.183H222.621L155.959 285.583C155.421 286.135 154.546 286.139 154.003 285.593C153.46 285.048 153.456 284.159 153.993 283.607L221.061 214.791C221.32 214.524 221.674 214.374 222.044 214.374H266.986ZM252.12 236.494C252.885 236.494 253.503 237.123 253.503 237.899C253.503 238.674 252.885 239.303 252.12 239.303H222.61L178.763 283.139C178.218 283.683 177.343 283.676 176.807 283.123C176.272 282.571 176.279 281.682 176.822 281.137L221.074 236.898C221.332 236.639 221.681 236.494 222.044 236.494H252.12ZM241.058 247.378C241.822 247.378 242.441 248.008 242.441 248.783C242.441 249.559 241.822 250.187 241.058 250.187H222.627L195.377 278.554C194.843 279.109 193.968 279.12 193.421 278.578C192.875 278.037 192.864 277.148 193.397 276.592L221.054 247.802C221.314 247.531 221.671 247.378 222.044 247.378H241.058ZM154.976 269.147C155.739 269.147 156.359 269.775 156.359 270.551C156.359 271.327 155.739 271.956 154.976 271.956H93.785C93.0213 271.956 92.4022 271.327 92.4022 270.551C92.4022 269.775 93.0213 269.147 93.785 269.147H154.976ZM227.921 258.613C228.685 258.613 229.303 259.243 229.303 260.018C229.303 260.794 228.685 261.422 227.921 261.422H222.645L213.374 271.51C212.854 272.077 211.979 272.107 211.42 271.578C210.862 271.049 210.832 270.16 211.353 269.593L221.033 259.059C221.294 258.775 221.66 258.613 222.044 258.613H227.921ZM273.209 202.788C273.973 202.788 274.591 203.417 274.591 204.192C274.591 204.968 273.973 205.597 273.209 205.597H222.617L168.053 261.012C167.794 261.275 167.442 261.422 167.075 261.422H75.4623C74.6986 261.422 74.0795 260.794 74.0795 260.018C74.0795 259.243 74.6986 258.613 75.4623 258.613H166.503L221.066 203.199C221.325 202.936 221.677 202.788 222.044 202.788H273.209ZM195.905 221.492L178.771 238.892L168.053 249.776C167.794 250.039 167.442 250.187 167.075 250.187H61.9795C61.2158 250.187 60.5967 249.559 60.5967 248.783C60.5967 248.008 61.2158 247.378 61.9795 247.378H166.503L174.454 239.303H116.948C116.184 239.303 115.565 238.674 115.565 237.899C115.565 237.123 116.184 236.494 116.948 236.494H177.221L185.517 228.068L177.637 228.07C181.116 227.336 184.412 226.398 187.525 225.261L188.283 225.259L188.734 224.806C191.246 223.833 193.636 222.727 195.905 221.492ZM117.346 230L108.591 238.892C108.332 239.155 107.98 239.303 107.613 239.303H51.6082C50.8445 239.303 50.2254 238.674 50.2254 237.899C50.2254 237.123 50.8445 236.494 51.6082 236.494H107.041L113.434 230H117.346ZM96 225.259V228.068L42.274 228.068C41.5552 228.068 40.9645 227.511 40.8975 226.799L40.8912 226.664C40.8912 225.888 41.5103 225.259 42.274 225.259L96 225.259ZM96 214.374V217.183L35.3598 217.183C34.641 217.183 34.0503 216.627 33.9833 215.914L33.977 215.779C33.977 215.004 34.5961 214.374 35.3598 214.374L96 214.374ZM96 181.019V183.828L58.7651 183.828L51.4446 191.553L96 191.552V194.361L48.7827 194.362L40.7967 202.788L96 202.787V205.596L38.1348 205.597L32.5534 211.486C32.0237 212.045 31.1483 212.063 30.5981 211.524C30.0477 210.986 30.0311 210.097 30.5607 209.538L36.5501 203.219L47.198 191.984L57.1804 181.45C57.4411 181.175 57.8008 181.019 58.1767 181.019L96 181.019ZM96 170.135V172.944L58.7356 172.944L28.7149 202.394C28.1655 202.932 27.2901 202.917 26.7596 202.359C26.229 201.801 26.2441 200.912 26.7934 200.373L57.216 170.53C57.4739 170.277 57.8184 170.135 58.1767 170.135L96 170.135ZM174.567 194.363L152.778 194.362L147.149 200H143.212L151.239 191.957C151.46 191.735 151.749 191.597 152.056 191.562L152.21 191.553L178.091 191.553C176.981 192.603 175.805 193.536 174.567 194.363ZM277.703 191.553C278.467 191.553 279.086 192.181 279.086 192.957C279.086 193.733 278.467 194.362 277.703 194.362H222.617L218.938 198.1C220.063 196.01 221.092 193.827 222.025 191.554L222.044 191.553H277.703ZM134 191.552L140.997 191.553C141.762 191.553 142.381 192.181 142.381 192.957C142.381 193.733 141.762 194.362 140.997 194.362L134 194.361V191.552ZM79 159.25V160.5H96V162.059L58.7366 162.059L26.2962 193.966C25.7476 194.505 24.8721 194.491 24.3408 193.934C23.8095 193.377 23.8235 192.488 24.3722 191.948L57.2148 159.647C57.4727 159.393 57.8176 159.251 58.1767 159.251L79 159.25ZM79 148.718V151.526L58.7415 151.527L23.8823 186.236C23.337 186.778 22.4614 186.77 21.9268 186.216C21.3921 185.662 21.4007 184.773 21.9462 184.23L57.2087 149.119C57.4672 148.862 57.8147 148.718 58.1767 148.718L79 148.718ZM183.892 183.829L134 183.828V181.019L185.24 181.021C184.816 182.003 184.367 182.938 183.892 183.829ZM280.815 181.019C281.579 181.019 282.198 181.649 282.198 182.424C282.198 183.2 281.579 183.828 280.815 183.828L224.732 183.828C225.005 182.905 225.264 181.969 225.511 181.021L280.815 181.019ZM187.87 172.946L134 172.944V170.135L188.471 170.136C188.287 171.102 188.086 172.038 187.87 172.946ZM25.3342 170.135C26.0979 170.135 26.717 170.764 26.717 171.54C26.717 172.315 26.0979 172.944 25.3342 172.944H19.1114C18.3477 172.944 17.7285 172.315 17.7285 171.54C17.7285 170.764 18.3477 170.135 19.1114 170.135H25.3342ZM282.543 170.135C283.307 170.135 283.926 170.764 283.926 171.54C283.926 172.315 283.307 172.944 282.543 172.944H230.686C229.923 172.944 229.303 172.315 229.303 171.54C229.303 170.764 229.923 170.135 230.686 170.135H282.543ZM228.985 148.717L284.272 148.718C285.035 148.718 285.655 149.346 285.655 150.123C285.655 150.898 285.035 151.527 284.272 151.527H241.617L228.361 164.567C228.497 163.17 228.611 161.754 228.704 160.319L237.641 151.527L228.999 151.528C229 151.308 229 151.088 229 150.867C229 150.146 228.995 149.43 228.985 148.717ZM189.574 162.061L134 162.059V159.25L189.783 159.252C189.725 160.21 189.655 161.146 189.574 162.061ZM37.5465 159.251C38.3102 159.251 38.9293 159.88 38.9293 160.655C38.9293 161.431 38.3102 162.059 37.5465 162.059H19.1114C18.3477 162.059 17.7285 161.431 17.7285 160.655C17.7285 159.88 18.3477 159.251 19.1114 159.251H37.5465ZM284.272 159.251C285.035 159.251 285.655 159.88 285.655 160.655C285.655 161.431 285.035 162.059 284.272 162.059H241.058C240.294 162.059 239.675 161.431 239.675 160.655C239.675 159.88 240.294 159.251 241.058 159.251H284.272ZM158 148.718L189.964 148.718C189.986 149.646 189.998 150.582 190 151.526L158 151.526V148.718ZM48.1944 148.718C48.9581 148.718 49.5772 149.346 49.5772 150.123C49.5772 150.898 48.9581 151.527 48.1944 151.527H17.3829C16.6191 151.527 16 150.898 16 150.123C16 149.346 16.6191 148.718 17.3829 148.718H48.1944ZM96 138.887V141.696L17.3829 141.696C16.664 141.696 16.0733 141.139 16.0063 140.427L16 140.292C16 139.516 16.6191 138.887 17.3829 138.887L96 138.887ZM134 112.437L157.277 136.078L188.869 136.078C189.018 137.001 189.15 137.938 189.268 138.887L134 138.887V136.077L140.974 136.078L134 128.799V124.772L144.833 136.078H153.366L134 116.41V112.437ZM228.25 136.076L284.617 136.078C285.381 136.078 286 136.707 286 137.483C286 138.258 285.381 138.887 284.617 138.887L228.517 138.886C228.438 137.941 228.349 137.004 228.25 136.076ZM164.31 117.82C164.694 117.82 165.061 117.982 165.323 118.267L174.246 128.003L187.043 128.001C187.32 128.919 187.575 129.856 187.809 130.811L173.645 130.811C173.261 130.811 172.894 130.649 172.632 130.364L163.708 120.629H149.79C149.027 120.629 148.407 120.001 148.407 119.225C148.407 118.45 149.027 117.82 149.79 117.82H164.31ZM220.124 106.233L257.998 106.234C258.358 106.234 258.703 106.376 258.961 106.631L270.715 118.218L270.73 118.232L280.35 128.003H283.58C284.344 128.003 284.963 128.632 284.963 129.407C284.963 130.183 284.344 130.811 283.58 130.811L227.567 130.81C227.422 129.864 227.265 128.928 227.097 128.002L276.44 128.003L269.18 120.629L225.465 120.63C225.214 119.68 224.949 118.743 224.671 117.819L266.342 117.82L257.437 109.043L221.442 109.041C221.021 108.087 220.581 107.151 220.124 106.233ZM93.785 127.651C94.5487 127.651 95.1678 128.281 95.1678 129.056C95.1678 129.832 94.5487 130.46 93.785 130.46H19.1114C18.3477 130.46 17.7285 129.832 17.7285 129.056C17.7285 128.281 18.3477 127.651 19.1114 127.651H93.785ZM93.785 117.119C94.1414 117.119 94.4839 117.258 94.7413 117.509L96 118.732V122.621L93.2298 119.928H21.1857C20.4219 119.928 19.8028 119.298 19.8028 118.523C19.8028 117.747 20.4219 117.119 21.1857 117.119H93.785ZM282.198 117.82C282.962 117.82 283.58 118.45 283.58 119.225C283.58 120.001 282.962 120.629 282.198 120.629H278.741C277.977 120.629 277.357 120.001 277.357 119.225C277.357 118.45 277.977 117.82 278.741 117.82H282.198ZM93.785 104.829C94.149 104.829 94.4984 104.975 94.7573 105.236L96 106.483V110.434L93.2167 107.638H25.3342C24.5705 107.638 23.9514 107.01 23.9514 106.234C23.9514 105.459 24.5705 104.829 25.3342 104.829H93.785ZM174.211 109.043L139.419 109.043C138.655 109.043 138.036 108.414 138.036 107.638C138.036 106.863 138.655 106.234 139.419 106.234L169.161 106.233C170.984 107.033 172.665 107.973 174.211 109.043ZM279.778 105.532C280.541 105.532 281.161 106.161 281.161 106.937C281.161 107.712 280.541 108.341 279.778 108.341H269.06C268.297 108.341 267.677 107.712 267.677 106.937C267.677 106.161 268.297 105.532 269.06 105.532H279.778ZM93.785 94.6477C94.1623 94.6477 94.523 94.8041 94.784 95.0809L96 96.371V100.433L93.1945 97.4565H27.7542C26.9905 97.4565 26.3714 96.8277 26.3714 96.0521C26.3714 95.2764 26.9905 94.6477 27.7542 94.6477H93.785ZM214.027 96.4026L274.591 96.4031C275.356 96.4031 275.974 97.032 275.974 97.8076C275.974 98.5832 275.356 99.212 274.591 99.212L216.045 99.2107C215.397 98.2503 214.725 97.3141 214.027 96.4026ZM93.785 83.4123C94.1582 83.4123 94.5157 83.5656 94.776 83.8372L96 85.114V89.142L93.2012 86.2211H33.6312C32.8675 86.2211 32.2484 85.5923 32.2484 84.8167C32.2484 84.0411 32.8675 83.4123 33.6312 83.4123H93.785ZM200.264 74.2835C200.616 74.2835 200.955 74.4201 201.212 74.6652L212.566 85.5189H269.752C270.515 85.5189 271.135 86.1477 271.135 86.9233C271.135 87.6989 270.515 88.3278 269.752 88.3278H212.019C211.666 88.3278 211.327 88.1912 211.07 87.946L199.716 77.0924L186.206 77.0916C182.572 75.8984 178.694 74.959 174.566 74.2829L200.264 74.2835ZM95.8592 74.2835C95.9068 74.2835 95.9541 74.286 96.001 74.2909L96 77.817L95.2865 77.0924H41.5826C40.8189 77.0924 40.1998 76.4635 40.1998 75.6879C40.1998 74.9123 40.8189 74.2835 41.5826 74.2835H95.8592ZM263.529 74.2835C264.293 74.2835 264.912 74.9123 264.912 75.6879C264.912 76.4635 264.293 77.0924 263.529 77.0924H212.019C211.255 77.0924 210.636 76.4635 210.636 75.6879C210.636 74.9123 211.255 74.2835 212.019 74.2835H263.529ZM255.578 62.6971C256.341 62.6971 256.961 63.3259 256.961 64.1015C256.961 64.8771 256.341 65.5059 255.578 65.5059H193.004C192.24 65.5059 191.621 64.8771 191.621 64.1015C191.621 63.3259 192.24 62.6971 193.004 62.6971H255.578ZM213.481 29.7331C214.032 29.1961 214.908 29.2144 215.436 29.774C215.965 30.3338 215.946 31.2227 215.396 31.7599L181.17 65.1148C180.913 65.3658 180.57 65.5059 180.213 65.5059H49.8797C49.116 65.5059 48.4968 64.8771 48.4968 64.1015C48.4968 63.3259 49.116 62.6971 49.8797 62.6971H179.656L213.481 29.7331ZM245.206 51.4617C245.97 51.4617 246.589 52.0905 246.589 52.8661C246.589 53.6417 245.97 54.2705 245.206 54.2705H203.721C202.958 54.2705 202.338 53.6417 202.338 52.8661C202.338 52.0905 202.958 51.4617 203.721 51.4617H245.206ZM205.516 25.5336C206.059 24.9888 206.935 24.9946 207.471 25.5467C208.008 26.0988 208.002 26.9881 207.458 27.5328L181.184 53.8657C180.926 54.1251 180.577 54.2705 180.213 54.2705H59.9053C59.1416 54.2705 58.5225 53.6417 58.5225 52.8661C58.5225 52.0905 59.1416 51.4617 59.9053 51.4617H179.645L205.516 25.5336ZM232.415 40.5774C233.179 40.5774 233.798 41.2062 233.798 41.9818C233.798 42.7575 233.179 43.3863 232.415 43.3863H214.438C213.674 43.3863 213.055 42.7575 213.055 41.9818C213.055 41.2062 213.674 40.5774 214.438 40.5774H232.415ZM197.549 22.0384C198.083 21.4848 198.959 21.4765 199.504 22.0198C200.05 22.5631 200.058 23.4523 199.522 24.0059L181.199 42.9656C180.94 43.2347 180.584 43.3863 180.213 43.3863H72.6967C71.9329 43.3863 71.3137 42.7575 71.3137 41.9818C71.3137 41.2062 71.9329 40.5774 72.6967 40.5774H179.632L197.549 22.0384ZM190.298 18.518C190.838 17.9696 191.714 17.9696 192.253 18.518C192.794 19.0665 192.794 19.9557 192.253 20.5042L181.19 31.7396C180.932 32.0029 180.58 32.1509 180.213 32.1509H89.6365C88.8727 32.1509 88.2536 31.5222 88.2536 30.7464C88.2536 29.9708 88.8727 29.342 89.6365 29.342H179.64L190.298 18.518ZM180.879 16.5054C181.368 15.9095 182.24 15.829 182.827 16.3256C183.414 16.8221 183.493 17.7077 183.003 18.3035L181.275 20.4102C181.012 20.7304 180.623 20.9156 180.213 20.9156H116.256C115.493 20.9156 114.873 20.2868 114.873 19.5111C114.873 18.7354 115.493 18.1067 116.256 18.1067H179.565L180.879 16.5054Z"
          fill="white"/>
    <path d="M157.828 67C208.789 67 235 97.216 235 150.867C235 204.866 208.34 236 157.828 236H90V166.5H73V137H90V67H157.828ZM157.828 73H96V143H79V160.5H96V230H157.828L159.281 229.991C206.954 229.393 229 199.261 229 150.867C229 102.445 207.083 73 157.828 73ZM151.739 97C167.835 97 179.643 102.72 186.984 113.673C193.257 123.034 196 135.734 196 151.788C196 190.04 180.921 206 151.739 206H128V153H152V150.5H128V97H151.739ZM151.739 103H134V144.5H158V159H134V200H151.739C173.884 200 190 190.658 190 151.788C190 124.107 181.42 103 151.739 103Z"
          fill="white"/>
    <path d="M151 0C67.605 0 0 67.605 0 151C0 234.395 67.605 302 151 302C234.395 302 302 234.395 302 151C302 67.605 234.395 0 151 0ZM151 6C231.081 6 296 70.9187 296 151C296 231.081 231.081 296 151 296C70.9187 296 6 231.081 6 151C6 70.9187 70.9187 6 151 6Z"
          fill="white"/>
    <path d="M151 10C73.1279 10 10 73.1279 10 151C10 228.872 73.1279 292 151 292C228.872 292 292 228.872 292 151C292 73.1279 228.872 10 151 10ZM151 13C227.215 13 289 74.7847 289 151C289 227.215 227.215 289 151 289C74.7847 289 13 227.215 13 151C13 74.7847 74.7847 13 151 13Z"
          fill="white"/>
</svg>
