<svg width="81" height="81" viewBox="0 0 81 81" fill="none" xmlns="http://www.w3.org/2000/svg">
    <g opacity="0.5">
        <mask id="mask0" mask-type="alpha" maskUnits="userSpaceOnUse" x="0" y="0" width="81" height="81">
            <path d="M40.772 0.780518C18.6852 0.780518 0.780273 18.6853 0.780273 40.7719C0.780273 62.8585 18.6852 80.7632 40.772 80.7632C62.8588 80.7632 80.7637 62.8585 80.7637 40.7719C80.7637 18.6853 62.8588 0.780518 40.772 0.780518ZM40.2535 67.2673L24.4493 44.9114L40.2535 54.1644V67.2673ZM40.2535 50.8879L24.3423 41.5677L40.2535 34.5981V50.8879ZM40.2535 33.4783L24.8548 40.2227L40.2535 14.351V33.4783ZM41.2791 14.3432L56.8942 40.3187L41.2791 33.4783V14.3432ZM41.2791 67.2673V54.1644L57.0834 44.9114L41.2791 67.2673ZM41.2791 50.8882V34.5985L57.202 41.573L41.2791 50.8882Z"
                  fill="black"/>
        </mask>
        <g mask="url(#mask0)">
            <path fill-rule="evenodd" clip-rule="evenodd"
                  d="M49.5855 5.01478C49.7212 4.85194 49.6992 4.60992 49.5363 4.47422C49.3735 4.33852 49.1315 4.36052 48.9958 4.52336L48.6311 4.96097H31.0596C30.8477 4.96097 30.6758 5.13281 30.6758 5.34478C30.6758 5.55675 30.8477 5.72859 31.0596 5.72859H48.8109C48.9248 5.72859 49.0328 5.67799 49.1057 5.59049L49.5855 5.01478ZM52.1527 5.07339C52.0028 4.9235 51.7598 4.9235 51.6099 5.07339L48.6519 8.03143H23.6713C23.4593 8.03143 23.2875 8.20326 23.2875 8.41524C23.2875 8.62721 23.4593 8.79904 23.6713 8.79904H48.8109C48.9126 8.79904 49.0103 8.75861 49.0822 8.68663L52.1527 5.61617C52.3026 5.46629 52.3026 5.22327 52.1527 5.07339ZM54.1703 6.57314C54.3187 6.42186 54.3165 6.17886 54.1652 6.03038C54.0139 5.8819 53.7709 5.88417 53.6224 6.03545L48.6498 11.1019H18.9696C18.7576 11.1019 18.5858 11.2737 18.5858 11.4857C18.5858 11.6977 18.7576 11.8695 18.9696 11.8695H48.8109C48.9139 11.8695 49.0126 11.8281 49.0848 11.7545L54.1703 6.57314ZM56.3728 7.537C56.5237 7.38811 56.5253 7.1451 56.3764 6.99423C56.2275 6.84335 55.9845 6.84174 55.8337 6.99063L48.6534 14.0764H15.4194C15.2074 14.0764 15.0356 14.2482 15.0356 14.4602C15.0356 14.6722 15.2074 14.844 15.4194 14.844H48.8109C48.9118 14.844 49.0086 14.8043 49.0804 14.7334L56.3728 7.537ZM58.5759 8.69216C58.7288 8.5454 58.7339 8.30244 58.5871 8.14949C58.4403 7.99655 58.1974 7.99154 58.0444 8.13831L48.6565 17.1468H12.6367C12.4248 17.1468 12.2529 17.3187 12.2529 17.5306C12.2529 17.7426 12.4248 17.9145 12.6367 17.9145H48.8109C48.9099 17.9145 49.0051 17.8762 49.0766 17.8076L58.5759 8.69216ZM58.3102 11.1019C58.0982 11.1019 57.9263 11.2737 57.9263 11.4857C57.9263 11.6977 58.0982 11.8695 58.3102 11.8695H63.2997C63.5117 11.8695 63.6835 11.6977 63.6835 11.4857C63.6835 11.2737 63.5117 11.1019 63.2997 11.1019H58.3102ZM55.3356 14.0764C55.1237 14.0764 54.9518 14.2482 54.9518 14.4602C54.9518 14.6722 55.1237 14.844 55.3356 14.844H66.8499C67.0619 14.844 67.2337 14.6722 67.2337 14.4602C67.2337 14.2482 67.0619 14.0764 66.8499 14.0764H55.3356ZM52.3611 17.1468C52.1491 17.1468 51.9773 17.3187 51.9773 17.5306C51.9773 17.7426 52.1491 17.9145 52.3611 17.9145H69.7285C69.9405 17.9145 70.1123 17.7426 70.1123 17.5306C70.1123 17.3187 69.9405 17.1468 69.7285 17.1468H52.3611ZM10.3339 20.3132C10.1219 20.3132 9.95008 20.4851 9.95008 20.6971C9.95008 20.909 10.1219 21.0809 10.3339 21.0809H25.2395L41.3595 37.2007H38.9913L25.0978 22.9241C25.0255 22.8499 24.9263 22.808 24.8227 22.808H8.12698C7.91501 22.808 7.74317 22.9798 7.74317 23.1918C7.74317 23.4038 7.91501 23.5756 8.12698 23.5756H24.6607L37.9202 37.2007H35.8252L25.1 25.9968C25.0276 25.9212 24.9274 25.8784 24.8227 25.8784H6.49578C6.28381 25.8784 6.11197 26.0503 6.11197 26.2623C6.11197 26.4742 6.28381 26.6461 6.49578 26.6461H24.6588L34.7625 37.2007H33.6172L25.0926 28.7719C25.0207 28.7009 24.9238 28.661 24.8227 28.661H5.82412C5.61214 28.661 5.44031 28.8329 5.44031 29.0448C5.44031 29.2568 5.61214 29.4287 5.82412 29.4287H24.665L33.0926 37.7615C33.1086 37.7773 33.1256 37.7914 33.1434 37.8038C33.2127 37.9033 33.328 37.9684 33.4584 37.9684H42.2861H77.7885C78.0005 37.9684 78.1723 37.7965 78.1723 37.5845C78.1723 37.3726 78.0005 37.2007 77.7885 37.2007H42.4451L25.6698 20.4257C25.5978 20.3537 25.5002 20.3132 25.3984 20.3132H10.3339ZM28.373 20.3132C28.161 20.3132 27.9892 20.4851 27.9892 20.6971C27.9892 20.909 28.161 21.0809 28.373 21.0809H54.2239L57.3754 24.047C57.4466 24.114 57.5407 24.1513 57.6385 24.1513H73.6626C73.8745 24.1513 74.0464 23.9795 74.0464 23.7675C74.0464 23.5555 73.8745 23.3837 73.6626 23.3837H57.7907L54.6391 20.4176C54.568 20.3506 54.4739 20.3132 54.3761 20.3132H28.373ZM57.6385 20.3132C57.4265 20.3132 57.2547 20.4851 57.2547 20.6971C57.2547 20.909 57.4265 21.0809 57.6385 21.0809H71.9354C72.1474 21.0809 72.3192 20.909 72.3192 20.6971C72.3192 20.4851 72.1474 20.3132 71.9354 20.3132H57.6385ZM31.0596 23.3837C30.8477 23.3837 30.6758 23.5555 30.6758 23.7675C30.6758 23.9795 30.8477 24.1513 31.0596 24.1513H52.2021L55.0642 27.0134C55.1362 27.0854 55.2338 27.1258 55.3356 27.1258H75.0059C75.2179 27.1258 75.3897 26.954 75.3897 26.742C75.3897 26.53 75.2179 26.3582 75.0059 26.3582H55.4946L52.6325 23.4961C52.5605 23.4241 52.4629 23.3837 52.3611 23.3837H31.0596ZM34.322 26.3582C34.11 26.3582 33.9382 26.53 33.9382 26.742C33.9382 26.954 34.11 27.1258 34.322 27.1258H50.5892L53.653 29.7215L57.3904 32.8879C57.4597 32.9466 57.5476 32.9789 57.6385 32.9789H73.5036L75.5186 34.9939H57.5167L54.6558 31.9485C54.5833 31.8712 54.4821 31.8274 54.3761 31.8274H50.8889L48.2187 29.1573C48.1467 29.0853 48.0491 29.0448 47.9473 29.0448H37.4885C37.2765 29.0448 37.1046 29.2167 37.1046 29.4287C37.1046 29.6406 37.2765 29.8125 37.4885 29.8125H47.7883L50.4585 32.4826C50.5305 32.5546 50.6281 32.5951 50.7299 32.5951H54.21L56.4635 34.9939H47.1548L44.6779 32.3335C44.6053 32.2555 44.5036 32.2113 44.397 32.2113H40.367C40.1551 32.2113 39.9832 32.3831 39.9832 32.5951C39.9832 32.807 40.1551 32.9789 40.367 32.9789H44.23L46.7068 35.6392C46.7794 35.7172 46.8812 35.7615 46.9878 35.7615H57.3506H76.4452H77.5007C77.7126 35.7615 77.8845 35.5896 77.8845 35.3777C77.8845 35.1657 77.7126 34.9939 77.5007 34.9939H76.6042L73.934 32.3237L73.9299 32.3196L70.6675 29.1532C70.5959 29.0837 70.5 29.0448 70.4002 29.0448H54.0418L50.978 26.4492C50.9087 26.3904 50.8208 26.3582 50.7299 26.3582H34.322ZM70.2445 29.8125L72.716 32.2113H57.7792L54.9478 29.8125H70.2445ZM73.4706 28.8529C73.2587 28.8529 73.0868 29.0248 73.0868 29.2368C73.0868 29.4487 73.2587 29.6206 73.4706 29.6206H76.4452C76.6572 29.6206 76.829 29.4487 76.829 29.2368C76.829 29.0248 76.6572 28.8529 76.4452 28.8529H73.4706ZM76.1573 32.9789H77.1169C77.3288 32.9789 77.5007 32.807 77.5007 32.5951C77.5007 32.3831 77.3288 32.2113 77.1169 32.2113H76.1573C75.9454 32.2113 75.7735 32.3831 75.7735 32.5951C75.7735 32.807 75.9454 32.9789 76.1573 32.9789ZM4.67269 32.0194C4.46071 32.0194 4.28888 32.1912 4.28888 32.4032C4.28888 32.6151 4.46071 32.787 4.67269 32.787H23.8632H24.6686L32.8864 40.655H14.9396C14.8391 40.655 14.7427 40.6944 14.6709 40.7647L4.88375 50.3599C4.73239 50.5083 4.72998 50.7513 4.87838 50.9027C5.02678 51.054 5.26978 51.0564 5.42114 50.908L15.0964 41.4226H33.8423H64.7503L59.4981 46.5081H14.9396C14.8401 46.5081 14.7445 46.5467 14.673 46.6158L6.22914 54.7717C6.07667 54.919 6.07246 55.1619 6.21973 55.3144C6.36699 55.4669 6.60997 55.4711 6.76243 55.3238L15.0947 47.2757H59.6535C59.7531 47.2757 59.8489 47.2369 59.9205 47.1676L65.8539 41.4226H77.6926C77.9045 41.4226 78.0764 41.2508 78.0764 41.0388C78.0764 40.8268 77.9045 40.655 77.6926 40.655H65.6985H33.9964L25.0882 32.1259C25.0167 32.0575 24.9216 32.0194 24.8227 32.0194H23.8632H4.67269ZM4.09697 34.8979C3.885 34.8979 3.71316 35.0697 3.71316 35.2817C3.71316 35.4937 3.885 35.6655 4.09697 35.6655H24.8227C25.0347 35.6655 25.2065 35.4937 25.2065 35.2817C25.2065 35.0697 25.0347 34.8979 24.8227 34.8979H4.09697ZM3.61721 37.9684C3.40524 37.9684 3.2334 38.1402 3.2334 38.3522C3.2334 38.5641 3.40524 38.736 3.61721 38.736H28.0851C28.2971 38.736 28.4689 38.5641 28.4689 38.3522C28.4689 38.1402 28.2971 37.9684 28.0851 37.9684H3.61721ZM3.61721 40.655C3.40524 40.655 3.2334 40.8268 3.2334 41.0388C3.2334 41.2508 3.40524 41.4226 3.61721 41.4226H12.169C12.3809 41.4226 12.5528 41.2508 12.5528 41.0388C12.5528 40.8268 12.3809 40.655 12.169 40.655H3.61721ZM4.09697 43.5336C3.885 43.5336 3.71316 43.7054 3.71316 43.9174C3.71316 44.1293 3.885 44.3012 4.09697 44.3012H9.21364C9.42561 44.3012 9.59745 44.1293 9.59745 43.9174C9.59745 43.7054 9.42561 43.5336 9.21364 43.5336H4.09697ZM14.9396 43.5336C14.8399 43.5336 14.7442 43.5723 14.6726 43.6417L5.55711 52.4692C5.40484 52.6167 5.40094 52.8597 5.5484 53.0119C5.69587 53.1642 5.93885 53.1681 6.09112 53.0206L15.095 44.3012H59.6535C59.8655 44.3012 60.0373 44.1293 60.0373 43.9174C60.0373 43.7054 59.8655 43.5336 59.6535 43.5336H14.9396ZM65.6985 43.5336C65.4865 43.5336 65.3147 43.7054 65.3147 43.9174C65.3147 44.1293 65.4865 44.3012 65.6985 44.3012H77.6926C77.9045 44.3012 78.0764 44.1293 78.0764 43.9174C78.0764 43.7054 77.9045 43.5336 77.6926 43.5336H65.6985ZM4.09697 46.5081C3.885 46.5081 3.71316 46.6799 3.71316 46.8919C3.71316 47.1038 3.885 47.2757 4.09697 47.2757H5.82412C6.03609 47.2757 6.20793 47.1038 6.20793 46.8919C6.20793 46.6799 6.03609 46.5081 5.82412 46.5081H4.09697ZM62.8199 46.5081C62.6079 46.5081 62.4361 46.6799 62.4361 46.8919C62.4361 47.1038 62.6079 47.2757 62.8199 47.2757H77.2128C77.4248 47.2757 77.5966 47.1038 77.5966 46.8919C77.5966 46.6799 77.4248 46.5081 77.2128 46.5081H62.8199ZM14.9396 49.4826C14.8353 49.4826 14.7354 49.525 14.6631 49.6002L11.8924 52.4788L8.93711 55.5492L7.27473 57.2763C7.12774 57.4291 7.13238 57.672 7.2851 57.819C7.43783 57.966 7.6808 57.9614 7.82779 57.8087L9.37693 56.1992H34.7175C34.9295 56.1992 35.1013 56.0273 35.1013 55.8154C35.1013 55.6034 34.9295 55.4316 34.7175 55.4316H10.1158L12.3323 53.1287H37.9267C38.1387 53.1287 38.3105 52.9569 38.3105 52.7449C38.3105 52.5329 38.1387 52.3611 37.9267 52.3611H13.0711L15.1029 50.2502H25.9741H56.9668H76.733C76.945 50.2502 77.1169 50.0783 77.1169 49.8664C77.1169 49.6544 76.945 49.4826 76.733 49.4826H56.9668H25.9741H14.9396ZM41.0387 52.3611C40.9378 52.3611 40.841 52.4008 40.7691 52.4717L37.6572 55.5422L34.4479 58.7086L33.5727 59.5721L33.5709 59.574L31.4599 61.6849L28.5018 64.6429H13.1165C12.9045 64.6429 12.7327 64.8148 12.7327 65.0267C12.7327 65.2387 12.9045 65.4105 13.1165 65.4105H28.6608C28.7626 65.4105 28.8602 65.3701 28.9322 65.2981L31.8903 62.3401H35.6654H38.7358H50.2831L47.9802 64.6429H45.1647H31.2515C31.0396 64.6429 30.8677 64.8148 30.8677 65.0267C30.8677 65.2387 31.0396 65.4105 31.2515 65.4105H45.1647H47.2126L45.0057 67.6174H15.9951C15.7831 67.6174 15.6113 67.7893 15.6113 68.0012C15.6113 68.2132 15.7831 68.385 15.9951 68.385H45.1647C45.2664 68.385 45.3641 68.3446 45.4361 68.2726L48.4106 65.2981L60.5801 53.1287H75.8695C76.0814 53.1287 76.2533 52.9569 76.2533 52.7449C76.2533 52.5329 76.0814 52.3611 75.8695 52.3611H60.4211C60.3193 52.3611 60.2217 52.4015 60.1497 52.4735L51.0507 61.5725H38.7358H35.6654H32.6579L34.1118 60.1186L34.1137 60.1167L34.875 59.3656H49.7704H51.4975C51.7095 59.3656 51.8813 59.1937 51.8813 58.9818C51.8813 58.7698 51.7095 58.598 51.4975 58.598H49.7704H35.653L38.0842 56.1992H52.1692H54.664C54.8759 56.1992 55.0478 56.0273 55.0478 55.8154C55.0478 55.6034 54.8759 55.4316 54.664 55.4316H52.1692H38.8622L41.1962 53.1287H54.664H57.7344C57.9464 53.1287 58.1182 52.9569 58.1182 52.7449C58.1182 52.5329 57.9464 52.3611 57.7344 52.3611H54.664H41.0387ZM60.4211 55.4316C60.3193 55.4316 60.2217 55.472 60.1497 55.544L45.0057 70.6879H19.7372C19.5253 70.6879 19.3534 70.8597 19.3534 71.0717C19.3534 71.2837 19.5253 71.4555 19.7372 71.4555H45.1647C45.2664 71.4555 45.3641 71.4151 45.4361 71.3431L60.5801 56.1992H74.6221C74.8341 56.1992 75.0059 56.0273 75.0059 55.8154C75.0059 55.6034 74.8341 55.4316 74.6221 55.4316H60.4211ZM8.60674 58.598C8.39477 58.598 8.22293 58.7698 8.22293 58.9818C8.22293 59.1937 8.39477 59.3656 8.60674 59.3656H31.7313C31.9433 59.3656 32.1151 59.1937 32.1151 58.9818C32.1151 58.7698 31.9433 58.598 31.7313 58.598H8.60674ZM60.4211 58.598C60.3186 58.598 60.2204 58.639 60.1483 58.7118L41.5335 77.5183C41.3844 77.669 41.3857 77.912 41.5363 78.0611C41.687 78.2102 41.93 78.209 42.0791 78.0583L60.5812 59.3656H72.8949C73.1069 59.3656 73.2787 59.1937 73.2787 58.9818C73.2787 58.7698 73.1069 58.598 72.8949 58.598H60.4211ZM10.5258 61.5725C10.3138 61.5725 10.142 61.7443 10.142 61.9563C10.142 62.1683 10.3138 62.3401 10.5258 62.3401H28.6608C28.8728 62.3401 29.0446 62.1683 29.0446 61.9563C29.0446 61.7443 28.8728 61.5725 28.6608 61.5725H10.5258ZM60.4211 61.5725C60.3197 61.5725 60.2224 61.6126 60.1505 61.6841L44.2224 77.5161C44.0721 77.6655 44.0713 77.9085 44.2208 78.0589C44.3702 78.2092 44.6132 78.21 44.7636 78.0605L60.5794 62.3401H71.1678C71.3798 62.3401 71.5516 62.1683 71.5516 61.9563C71.5516 61.7443 71.3798 61.5725 71.1678 61.5725H60.4211ZM60.4211 64.6429C60.3204 64.6429 60.2237 64.6825 60.1519 64.7532L47.8699 76.8431C47.7189 76.9918 47.717 77.2348 47.8657 77.3859C48.0144 77.537 48.2574 77.5389 48.4084 77.3902L60.5783 65.4105H68.769C68.981 65.4105 69.1528 65.2387 69.1528 65.0267C69.1528 64.8148 68.981 64.6429 68.769 64.6429H60.4211ZM60.4211 67.6174C60.3177 67.6174 60.2186 67.6592 60.1464 67.7332L52.4702 75.6013C52.3222 75.753 52.3252 75.996 52.4769 76.144C52.6286 76.292 52.8716 76.289 53.0196 76.1373L60.5829 68.385H65.6985C65.9105 68.385 66.0823 68.2132 66.0823 68.0012C66.0823 67.7893 65.9105 67.6174 65.6985 67.6174H60.4211ZM60.4211 70.6879C60.3147 70.6879 60.2131 70.732 60.1405 70.8098L57.4539 73.6884C57.3092 73.8433 57.3176 74.0862 57.4726 74.2308C57.6275 74.3755 57.8704 74.3671 58.015 74.2121L60.5879 71.4555H62.0523C62.2643 71.4555 62.4361 71.2837 62.4361 71.0717C62.4361 70.8597 62.2643 70.6879 62.0523 70.6879H60.4211ZM24.8227 73.5664C24.6107 73.5664 24.4389 73.7383 24.4389 73.9502C24.4389 74.1622 24.6107 74.334 24.8227 74.334H41.8063C42.0183 74.334 42.1901 74.1622 42.1901 73.9502C42.1901 73.7383 42.0183 73.5664 41.8063 73.5664H24.8227Z"
                  fill="black"/>
            <path fill-rule="evenodd" clip-rule="evenodd"
                  d="M40.7616 77.7267C61.2787 77.7267 77.9111 61.2771 77.9111 40.9855C77.9111 20.6939 61.2787 4.24427 40.7616 4.24427C20.2445 4.24427 3.61214 20.6939 3.61214 40.9855C3.61214 61.2771 20.2445 77.7267 40.7616 77.7267ZM40.7616 78.4803C61.6996 78.4803 78.6732 61.6933 78.6732 40.9855C78.6732 20.2776 61.6996 3.4906 40.7616 3.4906C19.8237 3.4906 2.8501 20.2776 2.8501 40.9855C2.8501 61.6933 19.8237 78.4803 40.7616 78.4803Z"
                  fill="black"/>
        </g>
        <path d="M39.8452 67.5559L40.7535 68.8407V67.2673V54.1644V53.8778L40.5062 53.733L24.7019 44.4799L24.041 45.2L39.8452 67.5559ZM40.0008 51.3193L40.7535 51.7602V50.8879V34.5981V33.8332L40.0529 34.1401L24.1417 41.1097L23.2431 41.5033L24.0896 41.9992L40.0008 51.3193ZM40.4541 33.9363L40.7535 33.8051V33.4783V14.351V12.5333L39.8239 14.0952L24.4251 39.967L23.6283 41.3058L25.0554 40.6807L40.4541 33.9363ZM41.7077 14.0856L40.7791 12.541V14.3432V33.4783V33.8051L41.0785 33.9362L56.6936 40.7767L58.1316 41.4067L57.3228 40.0611L41.7077 14.0856ZM40.7791 67.2673V68.8407L41.6874 67.5559L57.4917 45.2L56.8308 44.4799L41.0265 53.733L40.7791 53.8778V54.1644V67.2673ZM40.7791 50.8882V51.76L41.5316 51.3198L57.4545 42.0046L58.3018 41.5089L57.4026 41.115L41.4798 34.1405L40.7791 33.8336V34.5985V50.8882ZM1.28027 40.7719C1.28027 18.9614 18.9613 1.28052 40.772 1.28052C62.5826 1.28052 80.2637 18.9614 80.2637 40.7719C80.2637 62.5823 62.5826 80.2632 40.772 80.2632C18.9613 80.2632 1.28027 62.5823 1.28027 40.7719Z"
              stroke="black"/>
    </g>
</svg>
