<svg width="80" height="81" viewBox="0 0 80 81" fill="none" xmlns="http://www.w3.org/2000/svg">
    <g opacity="0.7">
        <mask id="mask0" mask-type="alpha" maskUnits="userSpaceOnUse" x="0" y="0" width="80" height="81">
            <path fill-rule="evenodd" clip-rule="evenodd"
                  d="M40 80.7209C62.0914 80.7209 80 62.8123 80 40.7209C80 18.6296 62.0914 0.720947 40 0.720947C17.9086 0.720947 0 18.6296 0 40.7209C0 62.8123 17.9086 80.7209 40 80.7209ZM39.924 39.2122C35.8199 39.3118 31.7863 37.8982 28.3477 35.1553L16.5129 24.9203C15.8074 24.3106 16.3458 23.3182 17.3812 23.3182H23.7292C24.7555 23.2918 25.7644 23.645 26.624 24.3316L33.9645 30.679C35.4451 31.9232 37.171 32.6598 38.9629 32.8123C41.3308 33.1138 43.7119 32.4172 45.7122 30.838L53.2256 24.3385C54.0847 23.6524 55.0931 23.2992 56.1189 23.3252H62.4669C63.5023 23.3252 64.0378 24.3176 63.3352 24.9273L51.5004 35.164C48.0609 37.9036 44.0274 39.3141 39.924 39.2122ZM39.9233 42.3687C35.8192 42.2691 31.7855 43.6827 28.3469 46.4256L16.5121 56.6606C15.8066 57.2703 16.345 58.2627 17.3804 58.2627H23.7284C24.7547 58.2891 25.7636 57.9359 26.6232 57.2494L33.9637 50.9019C35.4443 49.6577 37.1702 48.9211 38.9622 48.7686C41.3312 48.4708 43.7124 49.1716 45.7114 50.7551L53.2248 57.2546C54.084 57.9408 55.0923 58.2939 56.1182 58.268H62.4662C63.5015 58.268 64.0371 57.2756 63.3344 56.6658L51.4996 46.4221C48.0606 43.6807 44.0271 42.2684 39.9233 42.3687Z"
                  fill="black"/>
        </mask>
        <g mask="url(#mask0)">
            <path fill-rule="evenodd" clip-rule="evenodd"
                  d="M48.815 4.67873C48.9508 4.51586 48.9288 4.27379 48.7659 4.13806C48.603 4.00233 48.3609 4.02434 48.2252 4.18721L47.8605 4.62492H30.2854C30.0734 4.62492 29.9015 4.79679 29.9015 5.00881C29.9015 5.22082 30.0734 5.3927 30.2854 5.3927H48.0403C48.1542 5.3927 48.2622 5.34209 48.3352 5.25457L48.815 4.67873ZM51.3828 4.73736C51.2329 4.58744 50.9899 4.58744 50.8399 4.73736L47.8813 7.69603H22.8955C22.6835 7.69603 22.5116 7.86791 22.5116 8.07992C22.5116 8.29194 22.6835 8.46381 22.8955 8.46381H48.0403C48.1421 8.46381 48.2397 8.42337 48.3117 8.35137L51.3828 5.28026C51.5328 5.13034 51.5328 4.88727 51.3828 4.73736ZM53.4008 6.23743C53.5493 6.08612 53.547 5.84307 53.3957 5.69455C53.2444 5.54604 53.0013 5.54832 52.8528 5.69963L47.8792 10.7672H18.1928C17.9808 10.7672 17.809 10.939 17.809 11.151C17.809 11.3631 17.9808 11.5349 18.1928 11.5349H48.0403C48.1433 11.5349 48.2421 11.4935 48.3142 11.4199L53.4008 6.23743ZM55.6038 7.2015C55.7547 7.05258 55.7563 6.80951 55.6074 6.65861C55.4585 6.5077 55.2154 6.50609 55.0645 6.65501L47.8827 13.7423H14.6419C14.4299 13.7423 14.258 13.9142 14.258 14.1262C14.258 14.3382 14.4299 14.5101 14.6419 14.5101H48.0403C48.1412 14.5101 48.2381 14.4703 48.3099 14.3994L55.6038 7.2015ZM57.8073 8.35691C57.9603 8.21012 57.9653 7.9671 57.8185 7.81413C57.6717 7.66115 57.4287 7.65614 57.2757 7.80293L47.8859 16.8134H11.8587C11.6467 16.8134 11.4748 16.9853 11.4748 17.1973C11.4748 17.4093 11.6467 17.5812 11.8587 17.5812H48.0403C48.1393 17.5812 48.2346 17.5429 48.3061 17.4743L57.8073 8.35691ZM57.5415 10.7672C57.3295 10.7672 57.1576 10.939 57.1576 11.151C57.1576 11.3631 57.3295 11.5349 57.5415 11.5349H62.5321C62.7441 11.5349 62.916 11.3631 62.916 11.151C62.916 10.939 62.7441 10.7672 62.5321 10.7672H57.5415ZM54.5664 13.7423C54.3544 13.7423 54.1825 13.9142 54.1825 14.1262C54.1825 14.3382 54.3544 14.5101 54.5664 14.5101H66.0831C66.2951 14.5101 66.467 14.3382 66.467 14.1262C66.467 13.9142 66.2951 13.7423 66.0831 13.7423H54.5664ZM51.5912 16.8134C51.3792 16.8134 51.2074 16.9853 51.2074 17.1973C51.2074 17.4093 51.3792 17.5812 51.5912 17.5812H68.9623C69.1743 17.5812 69.3461 17.4093 69.3461 17.1973C69.3461 16.9853 69.1743 16.8134 68.9623 16.8134H51.5912ZM9.55533 19.9805C9.34331 19.9805 9.17144 20.1524 9.17144 20.3644C9.17144 20.5764 9.34331 20.7483 9.55533 20.7483H24.464L40.5874 36.8716H38.2186L24.3223 22.5919C24.25 22.5177 24.1508 22.4758 24.0472 22.4758H7.34796C7.13595 22.4758 6.96407 22.6477 6.96407 22.8597C6.96407 23.0717 7.13595 23.2436 7.34796 23.2436H23.8851L37.1473 36.8716H35.0519L24.3245 25.6653C24.2521 25.5897 24.1519 25.5469 24.0472 25.5469H5.71643C5.50442 25.5469 5.33254 25.7188 5.33254 25.9308C5.33254 26.1428 5.50442 26.3147 5.71643 26.3147H23.8832L33.989 36.8716H32.8435L24.3171 28.441C24.2452 28.37 24.1482 28.3301 24.0472 28.3301H5.04462C4.83261 28.3301 4.66073 28.502 4.66073 28.714C4.66073 28.926 4.83261 29.0979 5.04462 29.0979H23.8894L32.3188 37.4325C32.3348 37.4483 32.3517 37.4624 32.3695 37.4748C32.4389 37.5743 32.5542 37.6394 32.6847 37.6394H41.5141H77.0239C77.236 37.6394 77.4078 37.4676 77.4078 37.2555C77.4078 37.0435 77.236 36.8716 77.0239 36.8716H41.6732L24.8944 20.0929C24.8225 20.021 24.7248 19.9805 24.623 19.9805H9.55533ZM27.5981 19.9805C27.3861 19.9805 27.2143 20.1524 27.2143 20.3644C27.2143 20.5764 27.3861 20.7483 27.5981 20.7483H53.4544L56.6066 23.7151C56.6778 23.7821 56.7719 23.8194 56.8697 23.8194H72.8971C73.1091 23.8194 73.281 23.6475 73.281 23.4355C73.281 23.2235 73.1091 23.0516 72.8971 23.0516H57.022L53.8698 20.0848C53.7986 20.0178 53.7045 19.9805 53.6067 19.9805H27.5981ZM56.8697 19.9805C56.6577 19.9805 56.4858 20.1524 56.4858 20.3644C56.4858 20.5764 56.6577 20.7483 56.8697 20.7483H71.1696C71.3816 20.7483 71.5535 20.5764 71.5535 20.3644C71.5535 20.1524 71.3816 19.9805 71.1696 19.9805H56.8697ZM30.2854 23.0516C30.0734 23.0516 29.9015 23.2235 29.9015 23.4355C29.9015 23.6475 30.0734 23.8194 30.2854 23.8194H51.4322L54.2949 26.6821C54.3669 26.7541 54.4646 26.7945 54.5664 26.7945H74.2407C74.4528 26.7945 74.6246 26.6227 74.6246 26.4107C74.6246 26.1986 74.4528 26.0268 74.2407 26.0268H54.7254L51.8627 23.1641C51.7907 23.0921 51.6931 23.0516 51.5912 23.0516H30.2854ZM33.5484 26.0268C33.3364 26.0268 33.1645 26.1986 33.1645 26.4107C33.1645 26.6227 33.3364 26.7945 33.5484 26.7945H49.819L52.8834 29.3908L56.6216 32.5579C56.6909 32.6166 56.7789 32.6489 56.8697 32.6489H72.7381L74.7535 34.6643H56.7479L53.8865 31.6182C53.8139 31.541 53.7126 31.4972 53.6067 31.4972H50.1187L47.448 28.8264C47.376 28.7544 47.2783 28.714 47.1765 28.714H36.7155C36.5035 28.714 36.3316 28.8859 36.3316 29.0979C36.3316 29.3099 36.5035 29.4818 36.7155 29.4818H47.0175L49.6883 32.1525C49.7603 32.2245 49.8579 32.265 49.9597 32.265H53.4406L55.6945 34.6643H46.3839L43.9065 32.0034C43.8339 31.9254 43.7321 31.8811 43.6255 31.8811H39.5947C39.3827 31.8811 39.2108 32.053 39.2108 32.265C39.2108 32.477 39.3827 32.6489 39.5947 32.6489H43.4584L45.9358 35.3098C46.0084 35.3878 46.1102 35.4321 46.2168 35.4321H56.5818H75.6803H76.736C76.948 35.4321 77.1199 35.2602 77.1199 35.0482C77.1199 34.8362 76.948 34.6643 76.736 34.6643H75.8393L73.1686 31.9935L73.1645 31.9895L69.9014 28.8224C69.8298 28.7529 69.7339 28.714 69.6341 28.714H53.2723L50.2079 26.1178C50.1385 26.059 50.0506 26.0268 49.9597 26.0268H33.5484ZM69.4784 29.4818L71.9504 31.8811H57.0105L54.1785 29.4818H69.4784ZM72.7052 28.522C72.4932 28.522 72.3213 28.6939 72.3213 28.9059C72.3213 29.118 72.4932 29.2898 72.7052 29.2898H75.6803C75.8923 29.2898 76.0642 29.118 76.0642 28.9059C76.0642 28.6939 75.8923 28.522 75.6803 28.522H72.7052ZM75.3924 32.6489H76.3521C76.5641 32.6489 76.736 32.477 76.736 32.265C76.736 32.053 76.5641 31.8811 76.3521 31.8811H75.3924C75.1804 31.8811 75.0085 32.053 75.0085 32.265C75.0085 32.477 75.1804 32.6489 75.3924 32.6489ZM3.89296 31.6891C3.68094 31.6891 3.50907 31.861 3.50907 32.073C3.50907 32.285 3.68094 32.4569 3.89296 32.4569H23.0874H23.893L32.1125 40.3267H14.162C14.0615 40.3267 13.965 40.3661 13.8933 40.4364L4.10407 50.0337C3.95267 50.1821 3.95027 50.4251 4.09869 50.5765C4.24712 50.7279 4.49017 50.7303 4.64157 50.5819L14.3188 41.0944H33.0686H63.9831L58.7298 46.181H14.162C14.0625 46.181 13.9669 46.2196 13.8953 46.2887L5.44973 54.4464C5.29723 54.5937 5.29302 54.8367 5.44031 54.9892C5.58761 55.1417 5.83064 55.1459 5.98313 54.9986L14.3171 46.9488H58.8852C58.9848 46.9488 59.0806 46.91 59.1522 46.8407L65.0868 41.0944H76.928C77.14 41.0944 77.3119 40.9226 77.3119 40.7105C77.3119 40.4985 77.14 40.3267 76.928 40.3267H64.9314H33.2227L24.3127 31.7957C24.2412 31.7273 24.1461 31.6891 24.0472 31.6891H23.0874H3.89296ZM3.31712 34.5683C3.1051 34.5683 2.93323 34.7402 2.93323 34.9522C2.93323 35.1642 3.1051 35.3361 3.31712 35.3361H24.0472C24.2592 35.3361 24.4311 35.1642 24.4311 34.9522C24.4311 34.7402 24.2592 34.5683 24.0472 34.5683H3.31712ZM2.83726 37.6394C2.62524 37.6394 2.45337 37.8113 2.45337 38.0233C2.45337 38.2353 2.62524 38.4072 2.83726 38.4072H27.3102C27.5222 38.4072 27.6941 38.2353 27.6941 38.0233C27.6941 37.8113 27.5222 37.6394 27.3102 37.6394H2.83726ZM2.83726 40.3267C2.62524 40.3267 2.45337 40.4985 2.45337 40.7105C2.45337 40.9226 2.62524 41.0944 2.83726 41.0944H11.3908C11.6028 41.0944 11.7747 40.9226 11.7747 40.7105C11.7747 40.4985 11.6028 40.3267 11.3908 40.3267H2.83726ZM3.31712 43.2058C3.1051 43.2058 2.93323 43.3777 2.93323 43.5897C2.93323 43.8017 3.1051 43.9736 3.31712 43.9736H8.43485C8.64687 43.9736 8.81874 43.8017 8.81874 43.5897C8.81874 43.3777 8.64687 43.2058 8.43485 43.2058H3.31712ZM14.162 43.2058C14.0623 43.2058 13.9665 43.2446 13.8949 43.3139L4.77756 52.1434C4.62526 52.2909 4.62136 52.5339 4.76885 52.6862C4.91635 52.8385 5.15938 52.8424 5.31169 52.695L14.3174 43.9736H58.8852C59.0972 43.9736 59.269 43.8017 59.269 43.5897C59.269 43.3777 59.0972 43.2058 58.8852 43.2058H14.162ZM64.9314 43.2058C64.7194 43.2058 64.5475 43.3777 64.5475 43.5897C64.5475 43.8017 64.7194 43.9736 64.9314 43.9736H76.928C77.14 43.9736 77.3119 43.8017 77.3119 43.5897C77.3119 43.3777 77.14 43.2058 76.928 43.2058H64.9314ZM3.31712 46.181C3.1051 46.181 2.93323 46.3528 2.93323 46.5649C2.93323 46.7769 3.1051 46.9488 3.31712 46.9488H5.04462C5.25664 46.9488 5.42851 46.7769 5.42851 46.5649C5.42851 46.3528 5.25664 46.181 5.04462 46.181H3.31712ZM62.0522 46.181C61.8402 46.181 61.6684 46.3528 61.6684 46.5649C61.6684 46.7769 61.8402 46.9488 62.0522 46.9488H76.4481C76.6601 46.9488 76.832 46.7769 76.832 46.5649C76.832 46.3528 76.6601 46.181 76.4481 46.181H62.0522ZM14.162 49.1561C14.0576 49.1561 13.9578 49.1986 13.8854 49.2738L11.1142 52.153L8.15826 55.2241L6.49554 56.9516C6.34851 57.1043 6.35316 57.3474 6.50591 57.4944C6.65867 57.6414 6.90169 57.6368 7.04872 57.484L8.59817 55.8742H33.944C34.156 55.8742 34.3279 55.7023 34.3279 55.4903C34.3279 55.2783 34.156 55.1064 33.944 55.1064H9.33716L11.5541 52.8031H37.1539C37.3659 52.8031 37.5378 52.6312 37.5378 52.4192C37.5378 52.2072 37.3659 52.0353 37.1539 52.0353H12.2931L14.3253 49.9239H25.1988H56.1979H75.9682C76.1803 49.9239 76.3521 49.752 76.3521 49.54C76.3521 49.328 76.1803 49.1561 75.9682 49.1561H56.1979H25.1988H14.162ZM40.2665 52.0353C40.1656 52.0353 40.0687 52.075 39.9969 52.1459L36.8843 55.217L33.6744 58.3841L32.7989 59.2479L32.7971 59.2497L30.6857 61.3611L27.727 64.3198H12.3385C12.1265 64.3198 11.9546 64.4916 11.9546 64.7036C11.9546 64.9157 12.1265 65.0875 12.3385 65.0875H27.8861C27.9879 65.0875 28.0855 65.0471 28.1575 64.9751L31.1162 62.0164H34.892H37.9632H49.5128L47.2094 64.3198H44.3933H30.4773C30.2653 64.3198 30.0934 64.4916 30.0934 64.7036C30.0934 64.9157 30.2653 65.0875 30.4773 65.0875H44.3933H46.4417L44.2343 67.2949H15.2177C15.0057 67.2949 14.8338 67.4668 14.8338 67.6788C14.8338 67.8908 15.0057 68.0627 15.2177 68.0627H44.3933C44.4951 68.0627 44.5928 68.0222 44.6648 67.9502L47.6399 64.9751L59.8119 52.8031H75.1045C75.3165 52.8031 75.4884 52.6312 75.4884 52.4192C75.4884 52.2072 75.3165 52.0353 75.1045 52.0353H59.6529C59.5511 52.0353 59.4535 52.0757 59.3815 52.1477L50.2806 61.2486H37.9632H34.892H31.884L33.3382 59.7944L33.34 59.7926L34.1015 59.0413H49H50.7275C50.9395 59.0413 51.1114 58.8694 51.1114 58.6574C51.1114 58.4454 50.9395 58.2735 50.7275 58.2735H49H34.8797L37.3114 55.8742H51.3993H53.8946C54.1066 55.8742 54.2785 55.7023 54.2785 55.4903C54.2785 55.2783 54.1066 55.1064 53.8946 55.1064H51.3993H38.0895L40.424 52.8031H53.8946H56.9657C57.1777 52.8031 57.3496 52.6312 57.3496 52.4192C57.3496 52.2072 57.1777 52.0353 56.9657 52.0353H53.8946H40.2665ZM59.6529 55.1064C59.5511 55.1064 59.4535 55.1469 59.3815 55.2188L44.2343 70.366H18.9606C18.7486 70.366 18.5767 70.5379 18.5767 70.7499C18.5767 70.9619 18.7486 71.1338 18.9606 71.1338H44.3933C44.4951 71.1338 44.5928 71.0934 44.6648 71.0214L59.8119 55.8742H73.8568C74.0689 55.8742 74.2407 55.7023 74.2407 55.4903C74.2407 55.2783 74.0689 55.1064 73.8568 55.1064H59.6529ZM7.82782 58.2735C7.61581 58.2735 7.44393 58.4454 7.44393 58.6574C7.44393 58.8694 7.61581 59.0413 7.82782 59.0413H30.9572C31.1692 59.0413 31.3411 58.8694 31.3411 58.6574C31.3411 58.4454 31.1692 58.2735 30.9572 58.2735H7.82782ZM59.6529 58.2735C59.5504 58.2735 59.4522 58.3145 59.3801 58.3873L40.7614 77.1979C40.6123 77.3486 40.6135 77.5917 40.7642 77.7408C40.9149 77.89 41.158 77.8887 41.3071 77.738L59.8131 59.0413H72.1293C72.3414 59.0413 72.5132 58.8694 72.5132 58.6574C72.5132 58.4454 72.3414 58.2735 72.1293 58.2735H59.6529ZM9.74727 61.2486C9.53526 61.2486 9.36338 61.4205 9.36338 61.6325C9.36338 61.8445 9.53526 62.0164 9.74727 62.0164H27.8861C28.0981 62.0164 28.2699 61.8445 28.2699 61.6325C28.2699 61.4205 28.0981 61.2486 27.8861 61.2486H9.74727ZM59.6529 61.2486C59.5515 61.2486 59.4542 61.2888 59.3823 61.3603L43.4509 77.1957C43.3005 77.3452 43.2998 77.5882 43.4492 77.7386C43.5987 77.889 43.8418 77.8897 43.9921 77.7403L59.8113 62.0164H70.4018C70.6139 62.0164 70.7857 61.8445 70.7857 61.6325C70.7857 61.4205 70.6139 61.2486 70.4018 61.2486H59.6529ZM59.6529 64.3198C59.5522 64.3198 59.4554 64.3594 59.3836 64.4301L47.0992 76.5226C46.9481 76.6713 46.9461 76.9144 47.0949 77.0655C47.2436 77.2166 47.4867 77.2185 47.6378 77.0697L59.8102 65.0875H68.0025C68.2146 65.0875 68.3864 64.9157 68.3864 64.7036C68.3864 64.4916 68.2146 64.3198 68.0025 64.3198H59.6529ZM59.6529 67.2949C59.5495 67.2949 59.4504 67.3367 59.3782 67.4107L51.7004 75.2805C51.5523 75.4322 51.5553 75.6753 51.7071 75.8233C51.8588 75.9714 52.1019 75.9684 52.2499 75.8166L59.8147 68.0627H64.9314C65.1434 68.0627 65.3153 67.8908 65.3153 67.6788C65.3153 67.4668 65.1434 67.2949 64.9314 67.2949H59.6529ZM59.6529 70.366C59.5465 70.366 59.4449 70.4102 59.3723 70.488L56.6851 73.3671C56.5404 73.5221 56.5488 73.7651 56.7038 73.9097C56.8588 74.0544 57.1017 74.046 57.2463 73.891L59.8197 71.1338H61.2845C61.4965 71.1338 61.6684 70.9619 61.6684 70.7499C61.6684 70.5379 61.4965 70.366 61.2845 70.366H59.6529ZM24.0472 73.2452C23.8351 73.2452 23.6633 73.4171 23.6633 73.6291C23.6633 73.8411 23.8351 74.013 24.0472 74.013H41.0343C41.2463 74.013 41.4182 73.8411 41.4182 73.6291C41.4182 73.4171 41.2463 73.2452 41.0343 73.2452H24.0472Z"
                  fill="black"/>
            <path fill-rule="evenodd" clip-rule="evenodd"
                  d="M39.99 77.4063C60.5113 77.4063 77.1472 60.9531 77.1472 40.6571C77.1472 20.3612 60.5113 3.908 39.99 3.908C19.4686 3.908 2.83276 20.3612 2.83276 40.6571C2.83276 60.9531 19.4686 77.4063 39.99 77.4063ZM39.99 78.1601C60.9323 78.1601 77.9094 61.3695 77.9094 40.6571C77.9094 19.9448 60.9323 3.15417 39.99 3.15417C19.0477 3.15417 2.07056 19.9448 2.07056 40.6571C2.07056 61.3695 19.0477 78.1601 39.99 78.1601Z"
                  fill="black"/>
        </g>
        <path fill-rule="evenodd" clip-rule="evenodd"
              d="M27.9135 35.6769L16.0686 25.4333C15.4745 24.9198 15.3699 24.1713 15.6973 23.5675C16.0067 22.9967 16.6472 22.6402 17.3802 22.6402H23.7198C24.9145 22.6118 26.0738 23.0253 27.0461 23.8018L27.0565 23.8101L34.4033 30.163C35.7845 31.3226 37.379 31.9972 39.0195 32.1368L39.0336 32.138L39.0476 32.1398C41.2172 32.416 43.4138 31.7835 45.2795 30.3152L52.7911 23.8171L52.8015 23.8088C53.7734 23.0326 54.9321 22.6192 56.1263 22.6472H62.466C63.1994 22.6472 63.8392 23.004 64.1482 23.575C64.4745 24.1781 64.3705 24.9258 63.7786 25.4394L63.7778 25.4401L51.9326 35.6858L51.9219 35.6943C48.372 38.5218 44.1915 39.9923 39.923 39.8904C35.6535 39.9899 31.4729 38.5162 27.924 35.6853L27.9135 35.6769ZM39.9231 39.2122C44.0265 39.3141 48.06 37.9036 51.4995 35.164L63.3343 24.9273C64.0369 24.3176 63.5014 23.3252 62.466 23.3252H56.118C55.0922 23.2992 54.0838 23.6524 53.2246 24.3386L45.7113 30.838C43.711 32.4173 41.3299 33.1138 38.962 32.8123C37.1701 32.6599 35.4442 31.9233 33.9636 30.679L26.623 24.3316C25.7635 23.645 24.7545 23.2919 23.7282 23.3182H17.3802C16.3449 23.3182 15.8065 24.3106 16.5119 24.9204L28.3468 35.1553C31.7853 37.8982 35.819 39.3118 39.9231 39.2122ZM27.9136 45.9045L27.9241 45.8961C31.473 43.0651 35.6537 41.5914 39.9232 41.691C44.1922 41.5907 48.3728 43.0631 51.9222 45.8925L51.9329 45.901L63.7788 56.1542C64.3706 56.6678 64.4746 57.4155 64.1483 58.0186C63.8393 58.5896 63.1995 58.9464 62.4661 58.9464H56.1264C54.9322 58.9744 53.7735 58.561 52.8017 57.7848L52.7913 57.7765L45.2791 51.278C43.4143 49.8054 41.2175 49.1688 39.0467 49.4417L39.0332 49.4434L39.0196 49.4446C37.3791 49.5842 35.7846 50.2588 34.4034 51.4184C34.4022 51.4194 34.401 51.4204 34.3998 51.4214L27.0566 57.7713L27.0462 57.7796C26.0739 58.5561 24.9147 58.9696 23.7199 58.9411H17.3804C16.6473 58.9411 16.0068 58.5847 15.6974 58.0139C15.37 57.4102 15.4746 56.6617 16.0686 56.1482C16.0686 56.1482 16.0685 56.1483 16.0686 56.1482L27.9136 45.9045ZM16.5121 56.661C15.8066 57.2708 16.345 58.2632 17.3804 58.2632H23.7283C24.7547 58.2895 25.7636 57.9363 26.6231 57.2498L33.9637 50.9023C35.4443 49.6581 37.1702 48.9215 38.9621 48.7691C41.3312 48.4712 43.7123 49.1721 45.7114 50.7556L53.2247 57.255C54.0839 57.9412 55.0923 58.2944 56.1181 58.2684H62.4661C63.5015 58.2684 64.037 57.276 63.3344 56.6663L51.4996 46.4226C48.0606 43.6812 44.027 42.2688 39.9232 42.3692C35.8191 42.2696 31.7854 43.6832 28.3469 46.4261L16.5121 56.661ZM40 80.043C61.717 80.043 79.322 62.4379 79.322 40.7209C79.322 19.004 61.717 1.39891 40 1.39891C18.283 1.39891 0.677966 19.004 0.677966 40.7209C0.677966 62.4379 18.283 80.043 40 80.043ZM80 40.7209C80 62.8123 62.0914 80.7209 40 80.7209C17.9086 80.7209 0 62.8123 0 40.7209C0 18.6296 17.9086 0.720947 40 0.720947C62.0914 0.720947 80 18.6296 80 40.7209Z"
              fill="black"/>
    </g>
</svg>
