<svg width="302" height="302" viewBox="0 0 302 302" fill="none" xmlns="http://www.w3.org/2000/svg">
    <path fill-rule="evenodd" clip-rule="evenodd"
          d="M260.763 225.259C261.527 225.259 262.146 225.888 262.146 226.664C262.146 227.439 261.527 228.068 260.763 228.068H222.614L165.63 285.591C165.089 286.138 164.214 286.136 163.675 285.586C163.137 285.035 163.14 284.146 163.681 283.599L221.069 225.668C221.328 225.406 221.678 225.259 222.044 225.259H260.763ZM266.986 214.374C267.75 214.374 268.369 215.004 268.369 215.779C268.369 216.555 267.75 217.183 266.986 217.183H222.621L155.959 285.583C155.421 286.135 154.546 286.139 154.003 285.593C153.46 285.048 153.456 284.159 153.993 283.607L221.061 214.791C221.32 214.524 221.674 214.374 222.044 214.374H266.986ZM252.12 236.494C252.885 236.494 253.503 237.123 253.503 237.899C253.503 238.674 252.885 239.303 252.12 239.303H222.61L178.763 283.139C178.218 283.683 177.343 283.676 176.807 283.123C176.272 282.571 176.279 281.682 176.822 281.137L221.074 236.898C221.332 236.639 221.681 236.494 222.044 236.494H252.12ZM241.058 247.378C241.822 247.378 242.441 248.008 242.441 248.783C242.441 249.559 241.822 250.187 241.058 250.187H222.627L195.377 278.554C194.843 279.109 193.968 279.12 193.421 278.578C192.875 278.037 192.864 277.148 193.397 276.592L221.054 247.802C221.314 247.531 221.671 247.378 222.044 247.378H241.058ZM154.976 269.147C155.739 269.147 156.359 269.775 156.359 270.551C156.359 271.327 155.739 271.956 154.976 271.956H93.785C93.0213 271.956 92.4022 271.327 92.4022 270.551C92.4022 269.775 93.0213 269.147 93.785 269.147H154.976ZM227.921 258.613C228.685 258.613 229.303 259.243 229.303 260.018C229.303 260.794 228.685 261.422 227.921 261.422H222.645L213.374 271.51C212.854 272.077 211.979 272.107 211.42 271.578C210.862 271.049 210.832 270.16 211.353 269.593L221.033 259.059C221.294 258.775 221.66 258.613 222.044 258.613H227.921ZM214.421 213.919L168.053 261.012C167.794 261.275 167.442 261.422 167.075 261.422H75.4623C74.6986 261.422 74.0795 260.794 74.0795 260.018C74.0795 259.243 74.6986 258.613 75.4623 258.613H166.503L210.51 213.919H214.421ZM177.781 191.552L181.029 194.361L152.778 194.362L144.369 202.788L190.77 202.787L194.017 205.596L141.565 205.597L132.806 214.374H189.893C190.657 214.374 191.275 215.004 191.275 215.779C191.275 216.555 190.657 217.183 189.893 217.183H130.003L127.259 219.932L127.253 219.939L122.015 225.259H188.283L201.582 211.753C202.448 212.256 203.344 212.674 204.26 213.005L178.771 238.892L168.053 249.776C167.794 250.039 167.442 250.187 167.075 250.187H61.9795C61.2158 250.187 60.5967 249.559 60.5967 248.783C60.5967 248.008 61.2158 247.378 61.9795 247.378H166.503L174.454 239.303H116.948C116.184 239.303 115.565 238.674 115.565 237.899C115.565 237.123 116.184 236.494 116.948 236.494H177.221L185.517 228.068H119.249L108.591 238.892C108.332 239.155 107.98 239.303 107.613 239.303H51.6082C50.8445 239.303 50.2254 238.674 50.2254 237.899C50.2254 237.123 50.8445 236.494 51.6082 236.494H107.041L117.698 225.67L125.304 217.946L125.311 217.939L128.464 214.779L140.027 203.193L151.239 191.957C151.497 191.698 151.846 191.553 152.21 191.553L177.781 191.552ZM107.613 225.259C108.377 225.259 108.996 225.888 108.996 226.664C108.996 227.439 108.377 228.068 107.613 228.068H42.274C41.5103 228.068 40.8912 227.439 40.8912 226.664C40.8912 225.888 41.5103 225.259 42.274 225.259H107.613ZM118.676 214.374C119.44 214.374 120.059 215.004 120.059 215.779C120.059 216.555 119.44 217.183 118.676 217.183H35.3598C34.5961 217.183 33.977 216.555 33.977 215.779C33.977 215.004 34.5961 214.374 35.3598 214.374H118.676ZM98.498 181.019L95.25 183.828L58.7651 183.828L51.4446 191.553L86.319 191.552L83.071 194.361L48.7827 194.362L40.7967 202.788L73.328 202.787L70.08 205.596L38.1348 205.597L32.5534 211.486C32.0237 212.045 31.1483 212.063 30.5981 211.524C30.0477 210.986 30.0311 210.097 30.5607 209.538L36.5501 203.219L47.198 191.984L57.1804 181.45C57.4411 181.175 57.8008 181.019 58.1767 181.019L98.498 181.019ZM273.209 202.788C273.973 202.788 274.591 203.417 274.591 204.192C274.591 204.968 273.973 205.597 273.209 205.597L232.893 205.596L229.647 202.787L273.209 202.788ZM112.209 202.787L129.435 202.788C130.199 202.788 130.818 203.417 130.818 204.192C130.818 204.968 130.199 205.597 129.435 205.597L108.961 205.596L112.209 202.787ZM111.23 170.135C110.747 170.501 110.267 170.874 109.79 171.255L107.835 172.944L58.7356 172.944L28.7149 202.394C28.1655 202.932 27.2901 202.917 26.7596 202.359C26.229 201.801 26.2441 200.912 26.7934 200.373L57.216 170.53C57.4739 170.277 57.8184 170.135 58.1767 170.135L111.23 170.135ZM277.703 191.553C278.467 191.553 279.086 192.181 279.086 192.957C279.086 193.733 278.467 194.362 277.703 194.362H222.617L221.372 195.624L219.26 193.797L221.066 191.964C221.293 191.733 221.591 191.591 221.908 191.56L222.044 191.553H277.703ZM125.202 191.552L140.997 191.553C141.762 191.553 142.381 192.181 142.381 192.957C142.381 193.733 141.762 194.362 140.997 194.362L121.953 194.361L125.202 191.552ZM132.372 159.25C129.82 160.021 127.302 160.959 124.83 162.059L58.7366 162.059L26.2962 193.966C25.7476 194.505 24.8721 194.491 24.3408 193.934C23.8095 193.377 23.8235 192.488 24.3722 191.948L57.2148 159.647C57.4727 159.393 57.8176 159.251 58.1767 159.251L132.372 159.25ZM93.785 117.119C93.9392 117.119 94.0908 117.145 94.234 117.195L95.912 118.647L126.837 148.718H284.272C285.035 148.718 285.655 149.346 285.655 150.123C285.655 150.898 285.035 151.527 284.272 151.527H241.617L220.24 172.549C219.983 172.803 219.637 172.944 219.278 172.944L195.168 172.944L193.203 171.243L192.63 170.79C192.347 170.569 192.063 170.351 191.778 170.135L218.718 170.135L237.641 151.527H58.7415L23.8823 186.236C23.337 186.778 22.4614 186.77 21.9268 186.216C21.3921 185.662 21.4007 184.773 21.9462 184.23L57.2087 149.119C57.4672 148.862 57.8147 148.718 58.1767 148.718H122.838L93.2298 119.928H21.1857C20.4219 119.928 19.8028 119.298 19.8028 118.523C19.8028 117.747 20.4219 117.119 21.1857 117.119H93.785ZM161.611 181.019C163.765 181.724 165.869 182.663 167.897 183.828L135.085 183.827C137.122 182.652 139.243 181.712 141.42 181.019L161.611 181.019ZM280.815 181.019C281.579 181.019 282.198 181.649 282.198 182.424C282.198 183.2 281.579 183.828 280.815 183.828L207.743 183.828L204.498 181.019L280.815 181.019ZM25.3342 170.135C26.0979 170.135 26.717 170.764 26.717 171.54C26.717 172.315 26.0979 172.944 25.3342 172.944H19.1114C18.3477 172.944 17.7285 172.315 17.7285 171.54C17.7285 170.764 18.3477 170.135 19.1114 170.135H25.3342ZM282.543 170.135C283.307 170.135 283.926 170.764 283.926 171.54C283.926 172.315 283.307 172.944 282.543 172.944H230.686C229.923 172.944 229.303 172.315 229.303 171.54C229.303 170.764 229.923 170.135 230.686 170.135H282.543ZM219.278 159.251C220.042 159.251 220.661 159.88 220.661 160.655C220.661 161.431 220.042 162.059 219.278 162.059L178.176 162.059C175.705 160.959 173.188 160.021 170.637 159.25L219.278 159.251ZM37.5465 159.251C38.3102 159.251 38.9293 159.88 38.9293 160.655C38.9293 161.431 38.3102 162.059 37.5465 162.059H19.1114C18.3477 162.059 17.7285 161.431 17.7285 160.655C17.7285 159.88 18.3477 159.251 19.1114 159.251H37.5465ZM284.272 159.251C285.035 159.251 285.655 159.88 285.655 160.655C285.655 161.431 285.035 162.059 284.272 162.059H241.058C240.294 162.059 239.675 161.431 239.675 160.655C239.675 159.88 240.294 159.251 241.058 159.251H284.272ZM48.1944 148.718C48.9581 148.718 49.5772 149.346 49.5772 150.123C49.5772 150.898 48.9581 151.527 48.1944 151.527H17.3829C16.6191 151.527 16 150.898 16 150.123C16 149.346 16.6191 148.718 17.3829 148.718H48.1944ZM105.539 138.887C106.303 138.887 106.922 139.516 106.922 140.292C106.922 141.067 106.303 141.696 105.539 141.696H17.3829C16.6191 141.696 16 141.067 16 140.292C16 139.516 16.6191 138.887 17.3829 138.887H105.539ZM185.441 136.078L284.617 136.078C285.381 136.078 286 136.707 286 137.483C286 138.258 285.381 138.887 284.617 138.887L180.262 138.888C182.015 138.034 183.742 137.097 185.441 136.078ZM221.471 106.233L257.998 106.234C258.358 106.234 258.703 106.376 258.961 106.631L270.715 118.218L270.73 118.232L280.35 128.003H283.58C284.344 128.003 284.963 128.632 284.963 129.407C284.963 130.183 284.344 130.811 283.58 130.811L193.041 130.811L193.206 130.683L196.303 128.002L207.785 128.003L202.681 122.485L204.789 120.662L211.579 128.003H276.44L269.18 120.629H212.019C211.691 120.629 211.374 120.511 211.124 120.296L208.161 117.746L210.294 115.901L212.525 117.82H266.342L257.437 109.043L218.224 109.042L221.471 106.233ZM93.785 127.651C94.5487 127.651 95.1678 128.281 95.1678 129.056C95.1678 129.832 94.5487 130.46 93.785 130.46H19.1114C18.3477 130.46 17.7285 129.832 17.7285 129.056C17.7285 128.281 18.3477 127.651 19.1114 127.651H93.785ZM95.8592 74.2835C96.2261 74.2835 96.5777 74.4315 96.837 74.6949L142.687 121.26C140.497 120.665 138.358 119.822 136.297 118.744L95.2865 77.0924H41.5826C40.8189 77.0924 40.1998 76.4635 40.1998 75.6879C40.1998 74.9123 40.8189 74.2835 41.5826 74.2835H95.8592ZM164.31 117.82C164.694 117.82 165.061 117.982 165.323 118.267L166.072 119.087C164.881 119.678 163.667 120.192 162.436 120.63L149.79 120.629C149.027 120.629 148.407 120.001 148.407 119.225C148.407 118.45 149.027 117.82 149.79 117.82H164.31ZM282.198 117.82C282.962 117.82 283.58 118.45 283.58 119.225C283.58 120.001 282.962 120.629 282.198 120.629H278.741C277.977 120.629 277.357 120.001 277.357 119.225C277.357 118.45 277.977 117.82 278.741 117.82H282.198ZM177.101 106.234C177.468 106.234 177.82 106.382 178.079 106.645L179.938 108.534L177.826 110.361L176.529 109.043H139.419C138.655 109.043 138.036 108.414 138.036 107.638C138.036 106.863 138.655 106.234 139.419 106.234H177.101ZM279.778 105.532C280.541 105.532 281.161 106.161 281.161 106.937C281.161 107.712 280.541 108.341 279.778 108.341H269.06C268.297 108.341 267.677 107.712 267.677 106.937C267.677 106.161 268.297 105.532 269.06 105.532H279.778ZM83.182 107.638L25.3342 107.638C24.5705 107.638 23.9514 107.01 23.9514 106.234C23.9514 105.459 24.5705 104.829 25.3342 104.829L79.934 104.829L83.182 107.638ZM187.127 96.4031C187.455 96.4031 187.771 96.5211 188.021 96.736L190.806 99.132L188.673 100.978L186.62 99.212H128.011C127.246 99.212 126.628 98.5832 126.628 97.8076C126.628 97.032 127.246 96.4031 128.011 96.4031H187.127ZM232.836 96.403L274.591 96.4031C275.356 96.4031 275.974 97.032 275.974 97.8076C275.974 98.5832 275.356 99.212 274.591 99.212H229.588L232.836 96.403ZM71.408 97.456L27.7542 97.4565C26.9905 97.4565 26.3714 96.8277 26.3714 96.0521C26.3714 95.2764 26.9905 94.6477 27.7542 94.6477L68.16 94.647L71.408 97.456ZM193.004 85.5189C193.371 85.5189 193.722 85.6669 193.982 85.9302L199.547 91.582L199.421 91.681L197.429 93.403L192.432 88.3278H116.256C115.493 88.3278 114.873 87.6989 114.873 86.9233C114.873 86.1477 115.493 85.5189 116.256 85.5189H193.004ZM93.785 83.4123C94.1582 83.4123 94.5157 83.5656 94.776 83.8372L100.258 89.5574C98.5697 88.7455 96.7884 88.2425 94.9725 88.0686L93.2012 86.2211H33.6312C32.8675 86.2211 32.2484 85.5923 32.2484 84.8167C32.2484 84.0411 32.8675 83.4123 33.6312 83.4123H93.785ZM200.264 74.2835C200.616 74.2835 200.955 74.4201 201.212 74.6652L212.566 85.5189H269.752C270.515 85.5189 271.135 86.1477 271.135 86.9233C271.135 87.6989 270.515 88.3278 269.752 88.3278L234.48 88.327C233.956 88.1377 233.363 88.0301 232.716 88.0301L211.168 88.03L211.07 87.946L199.716 77.0924H106.576C105.813 77.0924 105.193 76.4635 105.193 75.6879C105.193 74.9123 105.813 74.2835 106.576 74.2835H200.264ZM263.529 74.2835C264.293 74.2835 264.912 74.9123 264.912 75.6879C264.912 76.4635 264.293 77.0924 263.529 77.0924H212.019C211.255 77.0924 210.636 76.4635 210.636 75.6879C210.636 74.9123 211.255 74.2835 212.019 74.2835H263.529ZM255.578 62.6971C256.341 62.6971 256.961 63.3259 256.961 64.1015C256.961 64.8771 256.341 65.5059 255.578 65.5059H193.004C192.24 65.5059 191.621 64.8771 191.621 64.1015C191.621 63.3259 192.24 62.6971 193.004 62.6971H255.578ZM213.481 29.7331C214.032 29.1961 214.908 29.2144 215.436 29.774C215.965 30.3338 215.946 31.2227 215.396 31.7599L181.17 65.1148C180.913 65.3658 180.57 65.5059 180.213 65.5059H49.8797C49.116 65.5059 48.4968 64.8771 48.4968 64.1015C48.4968 63.3259 49.116 62.6971 49.8797 62.6971H179.656L213.481 29.7331ZM245.206 51.4617C245.97 51.4617 246.589 52.0905 246.589 52.8661C246.589 53.6417 245.97 54.2705 245.206 54.2705H203.721C202.958 54.2705 202.338 53.6417 202.338 52.8661C202.338 52.0905 202.958 51.4617 203.721 51.4617H245.206ZM205.516 25.5336C206.059 24.9888 206.935 24.9946 207.471 25.5467C208.008 26.0988 208.002 26.9881 207.458 27.5328L181.184 53.8657C180.926 54.1251 180.577 54.2705 180.213 54.2705H59.9053C59.1416 54.2705 58.5225 53.6417 58.5225 52.8661C58.5225 52.0905 59.1416 51.4617 59.9053 51.4617H179.645L205.516 25.5336ZM232.415 40.5774C233.179 40.5774 233.798 41.2062 233.798 41.9818C233.798 42.7575 233.179 43.3863 232.415 43.3863H214.438C213.674 43.3863 213.055 42.7575 213.055 41.9818C213.055 41.2062 213.674 40.5774 214.438 40.5774H232.415ZM197.549 22.0384C198.083 21.4848 198.959 21.4765 199.504 22.0198C200.05 22.5631 200.058 23.4523 199.522 24.0059L181.199 42.9656C180.94 43.2347 180.584 43.3863 180.213 43.3863H72.6967C71.9329 43.3863 71.3137 42.7575 71.3137 41.9818C71.3137 41.2062 71.9329 40.5774 72.6967 40.5774H179.632L197.549 22.0384ZM190.298 18.518C190.838 17.9696 191.714 17.9696 192.253 18.518C192.794 19.0665 192.794 19.9557 192.253 20.5042L181.19 31.7396C180.932 32.0029 180.58 32.1509 180.213 32.1509H89.6365C88.8727 32.1509 88.2536 31.5222 88.2536 30.7464C88.2536 29.9708 88.8727 29.342 89.6365 29.342H179.64L190.298 18.518ZM180.879 16.5054C181.368 15.9095 182.24 15.829 182.827 16.3256C183.414 16.8221 183.493 17.7077 183.003 18.3035L181.275 20.4102C181.012 20.7304 180.623 20.9156 180.213 20.9156H116.256C115.493 20.9156 114.873 20.2868 114.873 19.5111C114.873 18.7354 115.493 18.1067 116.256 18.1067H179.565L180.879 16.5054Z"
          fill="white"/>
    <path d="M151 0C67.605 0 0 67.605 0 151C0 234.395 67.605 302 151 302C234.395 302 302 234.395 302 151C302 67.605 234.395 0 151 0ZM151 6C231.081 6 296 70.9187 296 151C296 231.081 231.081 296 151 296C70.9187 296 6 231.081 6 151C6 70.9187 70.9187 6 151 6Z"
          fill="white"/>
    <path d="M151 10C73.1279 10 10 73.1279 10 151C10 228.872 73.1279 292 151 292C228.872 292 292 228.872 292 151C292 73.1279 228.872 10 151 10ZM151 13C227.215 13 289 74.7847 289 151C289 227.215 227.215 289 151 289C74.7847 289 13 227.215 13 151C13 74.7847 74.7847 13 151 13Z"
          fill="white"/>
    <path d="M152.128 153.626C166.911 153.43 181.41 158.419 193.884 167.968L194.488 168.435L195.061 168.888L195.166 168.974L237.807 205.882C242.495 209.95 239.206 216.534 233.196 216.905L232.967 216.916L232.713 216.92L209.919 216.919C205.808 217.023 201.778 215.72 198.28 213.172L197.907 212.894L197.573 212.634L197.456 212.538L170.446 189.173L170.074 188.883C163.861 184.112 156.621 181.915 149.384 182.568L148.891 182.617L148.408 182.673L148.288 182.686C142.808 183.152 137.494 185.308 132.844 188.957L132.397 189.314L131.988 189.651L105.542 212.52L105.452 212.595C102.067 215.298 98.0895 216.797 93.9534 216.901L93.5097 216.906L93.1505 216.902H70.2803C64.2383 216.902 60.5128 210.512 64.8414 206.185L65.0075 206.023L65.1897 205.86L107.828 168.986L107.919 168.91C120.651 158.753 135.604 153.427 150.865 153.627L151.505 153.638L152.128 153.626ZM190.783 173.154C179.244 164.14 165.857 159.452 152.24 159.625L151.57 159.638L151.424 159.638C137.579 159.303 123.947 163.997 112.226 173.153L111.696 173.57L69.0578 210.448L69.0351 210.46L69.0459 210.476C69.1875 210.657 69.4928 210.823 69.9389 210.881L70.1128 210.897L70.2803 210.902L93.1873 210.902L93.5437 210.907C96.2896 210.904 98.9988 209.961 101.385 208.158L101.675 207.931L128.115 185.069L128.593 184.674C134.126 180.176 140.532 177.447 147.207 176.761L147.747 176.71L148.179 176.659C157.01 175.686 165.843 178.217 173.337 183.828L173.777 184.161L174.213 184.502L174.313 184.585L201.326 207.951L201.571 208.143C203.843 209.874 206.408 210.82 209.078 210.916L209.46 210.924L209.843 210.92L232.661 210.92L232.81 210.918C233.405 210.897 233.796 210.695 233.95 210.488L233.961 210.468L233.926 210.453L233.878 210.416L191.28 173.547L190.783 173.154ZM93.0762 85.0059C97.3469 84.8963 101.527 86.3063 105.088 89.0258L105.455 89.3118L105.545 89.3866L131.959 112.227C136.681 116.195 142.124 118.578 147.762 119.17L148.416 119.234C155.972 120.196 163.584 118.035 170.081 113.063L170.446 112.778L197.549 89.3367C201.066 86.5287 205.219 85.0217 209.412 85.0245L209.846 85.0301H232.716C238.899 85.0301 242.576 91.6902 237.978 95.9178L237.806 96.0713L195.168 132.952L195.075 133.029C182.339 143.174 167.388 148.488 152.129 148.279L151.486 148.266L150.867 148.279C136.077 148.473 121.576 143.476 109.104 133.92L108.511 133.461L107.922 132.996L107.831 132.92L65.193 96.0469C60.3769 91.8843 63.9345 85.1672 70.0605 85.0078L70.283 85.0049L93.0762 85.0059ZM191.291 128.371L233.877 91.5368L233.934 91.4948L233.954 91.4852L233.965 91.483L233.95 91.4589C233.814 91.279 233.51 91.1099 233.061 91.0516L232.885 91.0351L232.716 91.0301L209.77 91.0292C206.918 90.957 204.093 91.9018 201.614 93.7757L201.325 93.999L174.316 117.366L174.212 117.451C166.529 123.517 157.35 126.273 148.177 125.248L147.713 125.192L147.224 125.147C140.723 124.482 134.479 121.879 129.023 117.572L128.529 117.176L128.067 116.793L101.668 93.967L101.389 93.7502C99.1253 92.0386 96.5695 91.1021 93.9144 91.0087L93.5344 91.001L93.1532 91.0049H70.283C69.6408 91.0049 69.2132 91.2123 69.0439 91.4359L69.0301 91.455L69.0405 91.457L69.0724 91.4735L69.1171 91.508L111.71 128.342L112.229 128.752C123.569 137.611 136.697 142.294 150.076 142.284L150.756 142.28L151.426 142.268L151.573 142.268C165.417 142.611 179.048 137.927 190.771 128.782L191.291 128.371Z"
          fill="white"/>
</svg>
