<svg width="21" height="14" viewBox="0 0 21 14" fill="none" xmlns="http://www.w3.org/2000/svg">
    <path fill-rule="evenodd" clip-rule="evenodd"
          d="M9.3 1.40003C9.52091 1.23434 9.56569 0.920943 9.4 0.700029C9.23431 0.479116 8.92091 0.434344 8.7 0.600029L0.7 6.60003C0.574097 6.69446 0.5 6.84265 0.5 7.00003C0.5 7.15741 0.574097 7.3056 0.7 7.40003L8.7 13.4C8.92091 13.5657 9.23431 13.5209 9.4 13.3C9.56569 13.0791 9.52091 12.7657 9.3 12.6L2.49996 7.5H20C20.2761 7.5 20.5 7.27614 20.5 7C20.5 6.72386 20.2761 6.5 20 6.5H2.50004L9.3 1.40003Z"
          fill="white"/>
</svg>
