<svg width="20" height="16" viewBox="0 0 20 16" fill="none" xmlns="http://www.w3.org/2000/svg">
    <path d="M15 0C16.7 0 18.6455 0.357647 20 1.41176V15.1529C20 15.3976 19.6909 15.7741 19.3182 15.5765C18.0455 14.8706 16.5 14.5882 15 14.5882C13.4545 14.5882 11.2273 15.2 10 16C8.68182 14.9647 6.77273 14.5882 5 14.5882C3.68182 14.5882 1.90909 15.0118 0.681818 15.6235C0.663636 15.6235 0 15.8118 0 15.2V1.41176C1.31818 0.37647 3.22727 0 5 0C6.77273 0 8.68182 0.37647 10 1.41176C11.3182 0.37647 13.2273 0 15 0ZM7.61905 5V11L13.619 8L7.61905 5Z"
          fill="black"/>
</svg>
