<svg width="43" height="43" viewBox="0 0 43 43" fill="none" xmlns="http://www.w3.org/2000/svg">
<circle cx="21.5" cy="21.5" r="21" fill="#121212" fill-opacity="0.5" stroke="white"/>
<path d="M28 26.5C27.8248 26.5003 27.6549 26.4393 27.52 26.3275L24.13 23.5H22.75C21.1587 23.5 19.6326 22.8679 18.5074 21.7426C17.3821 20.6174 16.75 19.0913 16.75 17.5C16.75 15.9087 17.3821 14.3826 18.5074 13.2574C19.6326 12.1321 21.1587 11.5 22.75 11.5H27.25C28.7074 11.5042 30.1134 12.0386 31.2055 13.0035C32.2977 13.9685 33.0013 15.2979 33.185 16.7437C33.3687 18.1894 33.0199 19.6526 32.2038 20.86C31.3877 22.0674 30.16 22.9365 28.75 23.305V25.75C28.7504 25.8935 28.7096 26.034 28.6325 26.155C28.5554 26.2759 28.4452 26.3723 28.315 26.4325C28.2161 26.4776 28.1087 26.5006 28 26.5ZM22.75 13C21.5565 13 20.4119 13.4741 19.568 14.318C18.7241 15.1619 18.25 16.3065 18.25 17.5C18.25 18.6935 18.7241 19.8381 19.568 20.682C20.4119 21.5259 21.5565 22 22.75 22H24.4C24.5752 21.9997 24.7451 22.0607 24.88 22.1725L27.25 24.145V22.69C27.2482 22.508 27.3127 22.3316 27.4313 22.1936C27.55 22.0556 27.7148 21.9655 27.895 21.94C29.0034 21.7584 30.0037 21.1688 30.6995 20.2872C31.3954 19.4056 31.7364 18.2956 31.6556 17.1754C31.5747 16.0552 31.0779 15.0057 30.2628 14.2331C29.4476 13.4605 28.3729 13.0207 27.25 13H22.75Z" fill="white"/>
<path d="M25.75 16.75H24.25V18.25H25.75V16.75Z" fill="white"/>
<path d="M22 16.75H20.5V18.25H22V16.75Z" fill="white"/>
<path d="M29.5 16.75H28V18.25H29.5V16.75Z" fill="white"/>
<path d="M16.0001 32.5C15.8914 32.5006 15.7839 32.4775 15.6851 32.4325C15.5549 32.3722 15.4447 32.2759 15.3676 32.155C15.2905 32.034 15.2497 31.8934 15.2501 31.75V29.305C14.0567 28.9871 12.9905 28.3086 12.197 27.3623C11.4036 26.416 10.9214 25.2479 10.8164 24.0174C10.7114 22.7869 10.9887 21.554 11.6103 20.4869C12.232 19.4198 13.1678 18.5705 14.2901 18.055C14.3806 18.0073 14.48 17.9786 14.5821 17.9707C14.6842 17.9629 14.7868 17.976 14.8836 18.0093C14.9804 18.0426 15.0694 18.0953 15.1451 18.1643C15.2207 18.2333 15.2814 18.3171 15.3235 18.4104C15.3656 18.5038 15.3881 18.6047 15.3896 18.7071C15.3912 18.8095 15.3718 18.9111 15.3325 19.0057C15.2933 19.1003 15.2352 19.1858 15.1617 19.2571C15.0881 19.3283 15.0008 19.3838 14.9051 19.42C14.02 19.8213 13.2886 20.4983 12.8203 21.3498C12.352 22.2013 12.1719 23.1815 12.307 24.1439C12.442 25.1062 12.885 25.999 13.5696 26.6886C14.2542 27.3783 15.1437 27.8278 16.1051 27.97C16.2853 27.9955 16.4501 28.0856 16.5687 28.2236C16.6874 28.3616 16.7518 28.538 16.7501 28.72V30.175L19.1201 28.2025C19.2507 28.0798 19.421 28.008 19.6001 28H21.2501C21.8507 28.0011 22.4453 27.8808 22.9982 27.6462C23.5512 27.4116 24.051 27.0677 24.4676 26.635C24.6068 26.4918 24.7972 26.4097 24.9969 26.4069C25.0958 26.4055 25.194 26.4236 25.2859 26.4602C25.3778 26.4968 25.4616 26.5511 25.5325 26.62C25.6035 26.6889 25.6601 26.7712 25.6992 26.862C25.7384 26.9528 25.7592 27.0505 25.7606 27.1494C25.762 27.2483 25.7439 27.3465 25.7074 27.4384C25.6708 27.5303 25.6165 27.6141 25.5476 27.685C24.9887 28.2591 24.3205 28.7155 23.5824 29.0273C22.8443 29.339 22.0513 29.4997 21.2501 29.5H19.8701L16.4801 32.3275C16.3451 32.4393 16.1753 32.5003 16.0001 32.5Z" fill="white"/>
</svg>
