<svg width="251" height="164" viewBox="0 0 251 164" fill="none" xmlns="http://www.w3.org/2000/svg">
    <path fill-rule="evenodd" clip-rule="evenodd"
          d="M1.5 3C2.32843 3 3 2.32843 3 1.5C3 0.671573 2.32843 0 1.5 0C0.671573 0 0 0.671573 0 1.5C0 2.32843 0.671573 3 1.5 3ZM1.5 26C2.32843 26 3 25.3284 3 24.5C3 23.6716 2.32843 23 1.5 23C0.671573 23 0 23.6716 0 24.5C0 25.3284 0.671573 26 1.5 26ZM3 47.5C3 48.3284 2.32843 49 1.5 49C0.671573 49 0 48.3284 0 47.5C0 46.6716 0.671573 46 1.5 46C2.32843 46 3 46.6716 3 47.5ZM1.5 72C2.32843 72 3 71.3284 3 70.5C3 69.6716 2.32843 69 1.5 69C0.671573 69 0 69.6716 0 70.5C0 71.3284 0.671573 72 1.5 72ZM3 93.5C3 94.3284 2.32843 95 1.5 95C0.671573 95 0 94.3284 0 93.5C0 92.6716 0.671573 92 1.5 92C2.32843 92 3 92.6716 3 93.5ZM1.5 118C2.32843 118 3 117.328 3 116.5C3 115.672 2.32843 115 1.5 115C0.671573 115 0 115.672 0 116.5C0 117.328 0.671573 118 1.5 118ZM3 139.5C3 140.328 2.32843 141 1.5 141C0.671573 141 0 140.328 0 139.5C0 138.672 0.671573 138 1.5 138C2.32843 138 3 138.672 3 139.5ZM1.5 164C2.32843 164 3 163.328 3 162.5C3 161.672 2.32843 161 1.5 161C0.671573 161 0 161.672 0 162.5C0 163.328 0.671573 164 1.5 164ZM48 1.5C48 2.32843 47.3284 3 46.5 3C45.6716 3 45 2.32843 45 1.5C45 0.671573 45.6716 0 46.5 0C47.3284 0 48 0.671573 48 1.5ZM46.5 26C47.3284 26 48 25.3284 48 24.5C48 23.6716 47.3284 23 46.5 23C45.6716 23 45 23.6716 45 24.5C45 25.3284 45.6716 26 46.5 26ZM48 47.5C48 48.3284 47.3284 49 46.5 49C45.6716 49 45 48.3284 45 47.5C45 46.6716 45.6716 46 46.5 46C47.3284 46 48 46.6716 48 47.5ZM46.5 72C47.3284 72 48 71.3284 48 70.5C48 69.6716 47.3284 69 46.5 69C45.6716 69 45 69.6716 45 70.5C45 71.3284 45.6716 72 46.5 72ZM48 93.5C48 94.3284 47.3284 95 46.5 95C45.6716 95 45 94.3284 45 93.5C45 92.6716 45.6716 92 46.5 92C47.3284 92 48 92.6716 48 93.5ZM46.5 118C47.3284 118 48 117.328 48 116.5C48 115.672 47.3284 115 46.5 115C45.6716 115 45 115.672 45 116.5C45 117.328 45.6716 118 46.5 118ZM48 139.5C48 140.328 47.3284 141 46.5 141C45.6716 141 45 140.328 45 139.5C45 138.672 45.6716 138 46.5 138C47.3284 138 48 138.672 48 139.5ZM46.5 164C47.3284 164 48 163.328 48 162.5C48 161.672 47.3284 161 46.5 161C45.6716 161 45 161.672 45 162.5C45 163.328 45.6716 164 46.5 164ZM93 1.5C93 2.32843 92.3284 3 91.5 3C90.6716 3 90 2.32843 90 1.5C90 0.671573 90.6716 0 91.5 0C92.3284 0 93 0.671573 93 1.5ZM91.5 26C92.3284 26 93 25.3284 93 24.5C93 23.6716 92.3284 23 91.5 23C90.6716 23 90 23.6716 90 24.5C90 25.3284 90.6716 26 91.5 26ZM93 47.5C93 48.3284 92.3284 49 91.5 49C90.6716 49 90 48.3284 90 47.5C90 46.6716 90.6716 46 91.5 46C92.3284 46 93 46.6716 93 47.5ZM91.5 72C92.3284 72 93 71.3284 93 70.5C93 69.6716 92.3284 69 91.5 69C90.6716 69 90 69.6716 90 70.5C90 71.3284 90.6716 72 91.5 72ZM93 93.5C93 94.3284 92.3284 95 91.5 95C90.6716 95 90 94.3284 90 93.5C90 92.6716 90.6716 92 91.5 92C92.3284 92 93 92.6716 93 93.5ZM91.5 118C92.3284 118 93 117.328 93 116.5C93 115.672 92.3284 115 91.5 115C90.6716 115 90 115.672 90 116.5C90 117.328 90.6716 118 91.5 118ZM93 139.5C93 140.328 92.3284 141 91.5 141C90.6716 141 90 140.328 90 139.5C90 138.672 90.6716 138 91.5 138C92.3284 138 93 138.672 93 139.5ZM91.5 164C92.3284 164 93 163.328 93 162.5C93 161.672 92.3284 161 91.5 161C90.6716 161 90 161.672 90 162.5C90 163.328 90.6716 164 91.5 164ZM138 1.5C138 2.32843 137.328 3 136.5 3C135.672 3 135 2.32843 135 1.5C135 0.671573 135.672 0 136.5 0C137.328 0 138 0.671573 138 1.5ZM136.5 26C137.328 26 138 25.3284 138 24.5C138 23.6716 137.328 23 136.5 23C135.672 23 135 23.6716 135 24.5C135 25.3284 135.672 26 136.5 26ZM138 47.5C138 48.3284 137.328 49 136.5 49C135.672 49 135 48.3284 135 47.5C135 46.6716 135.672 46 136.5 46C137.328 46 138 46.6716 138 47.5ZM136.5 72C137.328 72 138 71.3284 138 70.5C138 69.6716 137.328 69 136.5 69C135.672 69 135 69.6716 135 70.5C135 71.3284 135.672 72 136.5 72ZM138 93.5C138 94.3284 137.328 95 136.5 95C135.672 95 135 94.3284 135 93.5C135 92.6716 135.672 92 136.5 92C137.328 92 138 92.6716 138 93.5ZM136.5 118C137.328 118 138 117.328 138 116.5C138 115.672 137.328 115 136.5 115C135.672 115 135 115.672 135 116.5C135 117.328 135.672 118 136.5 118ZM138 139.5C138 140.328 137.328 141 136.5 141C135.672 141 135 140.328 135 139.5C135 138.672 135.672 138 136.5 138C137.328 138 138 138.672 138 139.5ZM136.5 164C137.328 164 138 163.328 138 162.5C138 161.672 137.328 161 136.5 161C135.672 161 135 161.672 135 162.5C135 163.328 135.672 164 136.5 164ZM183 1.5C183 2.32843 182.328 3 181.5 3C180.672 3 180 2.32843 180 1.5C180 0.671573 180.672 0 181.5 0C182.328 0 183 0.671573 183 1.5ZM181.5 26C182.328 26 183 25.3284 183 24.5C183 23.6716 182.328 23 181.5 23C180.672 23 180 23.6716 180 24.5C180 25.3284 180.672 26 181.5 26ZM183 47.5C183 48.3284 182.328 49 181.5 49C180.672 49 180 48.3284 180 47.5C180 46.6716 180.672 46 181.5 46C182.328 46 183 46.6716 183 47.5ZM181.5 72C182.328 72 183 71.3284 183 70.5C183 69.6716 182.328 69 181.5 69C180.672 69 180 69.6716 180 70.5C180 71.3284 180.672 72 181.5 72ZM183 93.5C183 94.3284 182.328 95 181.5 95C180.672 95 180 94.3284 180 93.5C180 92.6716 180.672 92 181.5 92C182.328 92 183 92.6716 183 93.5ZM181.5 118C182.328 118 183 117.328 183 116.5C183 115.672 182.328 115 181.5 115C180.672 115 180 115.672 180 116.5C180 117.328 180.672 118 181.5 118ZM183 139.5C183 140.328 182.328 141 181.5 141C180.672 141 180 140.328 180 139.5C180 138.672 180.672 138 181.5 138C182.328 138 183 138.672 183 139.5ZM181.5 164C182.328 164 183 163.328 183 162.5C183 161.672 182.328 161 181.5 161C180.672 161 180 161.672 180 162.5C180 163.328 180.672 164 181.5 164ZM228 1.5C228 2.32843 227.328 3 226.5 3C225.672 3 225 2.32843 225 1.5C225 0.671573 225.672 0 226.5 0C227.328 0 228 0.671573 228 1.5ZM226.5 26C227.328 26 228 25.3284 228 24.5C228 23.6716 227.328 23 226.5 23C225.672 23 225 23.6716 225 24.5C225 25.3284 225.672 26 226.5 26ZM228 47.5C228 48.3284 227.328 49 226.5 49C225.672 49 225 48.3284 225 47.5C225 46.6716 225.672 46 226.5 46C227.328 46 228 46.6716 228 47.5ZM226.5 72C227.328 72 228 71.3284 228 70.5C228 69.6716 227.328 69 226.5 69C225.672 69 225 69.6716 225 70.5C225 71.3284 225.672 72 226.5 72ZM228 93.5C228 94.3284 227.328 95 226.5 95C225.672 95 225 94.3284 225 93.5C225 92.6716 225.672 92 226.5 92C227.328 92 228 92.6716 228 93.5ZM226.5 118C227.328 118 228 117.328 228 116.5C228 115.672 227.328 115 226.5 115C225.672 115 225 115.672 225 116.5C225 117.328 225.672 118 226.5 118ZM228 139.5C228 140.328 227.328 141 226.5 141C225.672 141 225 140.328 225 139.5C225 138.672 225.672 138 226.5 138C227.328 138 228 138.672 228 139.5ZM226.5 164C227.328 164 228 163.328 228 162.5C228 161.672 227.328 161 226.5 161C225.672 161 225 161.672 225 162.5C225 163.328 225.672 164 226.5 164ZM26 1.5C26 2.32843 25.3284 3 24.5 3C23.6716 3 23 2.32843 23 1.5C23 0.671573 23.6716 0 24.5 0C25.3284 0 26 0.671573 26 1.5ZM24.5 26C25.3284 26 26 25.3284 26 24.5C26 23.6716 25.3284 23 24.5 23C23.6716 23 23 23.6716 23 24.5C23 25.3284 23.6716 26 24.5 26ZM26 47.5C26 48.3284 25.3284 49 24.5 49C23.6716 49 23 48.3284 23 47.5C23 46.6716 23.6716 46 24.5 46C25.3284 46 26 46.6716 26 47.5ZM24.5 72C25.3284 72 26 71.3284 26 70.5C26 69.6716 25.3284 69 24.5 69C23.6716 69 23 69.6716 23 70.5C23 71.3284 23.6716 72 24.5 72ZM26 93.5C26 94.3284 25.3284 95 24.5 95C23.6716 95 23 94.3284 23 93.5C23 92.6716 23.6716 92 24.5 92C25.3284 92 26 92.6716 26 93.5ZM24.5 118C25.3284 118 26 117.328 26 116.5C26 115.672 25.3284 115 24.5 115C23.6716 115 23 115.672 23 116.5C23 117.328 23.6716 118 24.5 118ZM26 139.5C26 140.328 25.3284 141 24.5 141C23.6716 141 23 140.328 23 139.5C23 138.672 23.6716 138 24.5 138C25.3284 138 26 138.672 26 139.5ZM24.5 164C25.3284 164 26 163.328 26 162.5C26 161.672 25.3284 161 24.5 161C23.6716 161 23 161.672 23 162.5C23 163.328 23.6716 164 24.5 164ZM71 1.5C71 2.32843 70.3284 3 69.5 3C68.6716 3 68 2.32843 68 1.5C68 0.671573 68.6716 0 69.5 0C70.3284 0 71 0.671573 71 1.5ZM69.5 26C70.3284 26 71 25.3284 71 24.5C71 23.6716 70.3284 23 69.5 23C68.6716 23 68 23.6716 68 24.5C68 25.3284 68.6716 26 69.5 26ZM71 47.5C71 48.3284 70.3284 49 69.5 49C68.6716 49 68 48.3284 68 47.5C68 46.6716 68.6716 46 69.5 46C70.3284 46 71 46.6716 71 47.5ZM69.5 72C70.3284 72 71 71.3284 71 70.5C71 69.6716 70.3284 69 69.5 69C68.6716 69 68 69.6716 68 70.5C68 71.3284 68.6716 72 69.5 72ZM71 93.5C71 94.3284 70.3284 95 69.5 95C68.6716 95 68 94.3284 68 93.5C68 92.6716 68.6716 92 69.5 92C70.3284 92 71 92.6716 71 93.5ZM69.5 118C70.3284 118 71 117.328 71 116.5C71 115.672 70.3284 115 69.5 115C68.6716 115 68 115.672 68 116.5C68 117.328 68.6716 118 69.5 118ZM71 139.5C71 140.328 70.3284 141 69.5 141C68.6716 141 68 140.328 68 139.5C68 138.672 68.6716 138 69.5 138C70.3284 138 71 138.672 71 139.5ZM69.5 164C70.3284 164 71 163.328 71 162.5C71 161.672 70.3284 161 69.5 161C68.6716 161 68 161.672 68 162.5C68 163.328 68.6716 164 69.5 164ZM116 1.5C116 2.32843 115.328 3 114.5 3C113.672 3 113 2.32843 113 1.5C113 0.671573 113.672 0 114.5 0C115.328 0 116 0.671573 116 1.5ZM114.5 26C115.328 26 116 25.3284 116 24.5C116 23.6716 115.328 23 114.5 23C113.672 23 113 23.6716 113 24.5C113 25.3284 113.672 26 114.5 26ZM116 47.5C116 48.3284 115.328 49 114.5 49C113.672 49 113 48.3284 113 47.5C113 46.6716 113.672 46 114.5 46C115.328 46 116 46.6716 116 47.5ZM114.5 72C115.328 72 116 71.3284 116 70.5C116 69.6716 115.328 69 114.5 69C113.672 69 113 69.6716 113 70.5C113 71.3284 113.672 72 114.5 72ZM116 93.5C116 94.3284 115.328 95 114.5 95C113.672 95 113 94.3284 113 93.5C113 92.6716 113.672 92 114.5 92C115.328 92 116 92.6716 116 93.5ZM114.5 118C115.328 118 116 117.328 116 116.5C116 115.672 115.328 115 114.5 115C113.672 115 113 115.672 113 116.5C113 117.328 113.672 118 114.5 118ZM116 139.5C116 140.328 115.328 141 114.5 141C113.672 141 113 140.328 113 139.5C113 138.672 113.672 138 114.5 138C115.328 138 116 138.672 116 139.5ZM114.5 164C115.328 164 116 163.328 116 162.5C116 161.672 115.328 161 114.5 161C113.672 161 113 161.672 113 162.5C113 163.328 113.672 164 114.5 164ZM161 1.5C161 2.32843 160.328 3 159.5 3C158.672 3 158 2.32843 158 1.5C158 0.671573 158.672 0 159.5 0C160.328 0 161 0.671573 161 1.5ZM159.5 26C160.328 26 161 25.3284 161 24.5C161 23.6716 160.328 23 159.5 23C158.672 23 158 23.6716 158 24.5C158 25.3284 158.672 26 159.5 26ZM161 47.5C161 48.3284 160.328 49 159.5 49C158.672 49 158 48.3284 158 47.5C158 46.6716 158.672 46 159.5 46C160.328 46 161 46.6716 161 47.5ZM159.5 72C160.328 72 161 71.3284 161 70.5C161 69.6716 160.328 69 159.5 69C158.672 69 158 69.6716 158 70.5C158 71.3284 158.672 72 159.5 72ZM161 93.5C161 94.3284 160.328 95 159.5 95C158.672 95 158 94.3284 158 93.5C158 92.6716 158.672 92 159.5 92C160.328 92 161 92.6716 161 93.5ZM159.5 118C160.328 118 161 117.328 161 116.5C161 115.672 160.328 115 159.5 115C158.672 115 158 115.672 158 116.5C158 117.328 158.672 118 159.5 118ZM161 139.5C161 140.328 160.328 141 159.5 141C158.672 141 158 140.328 158 139.5C158 138.672 158.672 138 159.5 138C160.328 138 161 138.672 161 139.5ZM159.5 164C160.328 164 161 163.328 161 162.5C161 161.672 160.328 161 159.5 161C158.672 161 158 161.672 158 162.5C158 163.328 158.672 164 159.5 164ZM206 1.5C206 2.32843 205.328 3 204.5 3C203.672 3 203 2.32843 203 1.5C203 0.671573 203.672 0 204.5 0C205.328 0 206 0.671573 206 1.5ZM204.5 26C205.328 26 206 25.3284 206 24.5C206 23.6716 205.328 23 204.5 23C203.672 23 203 23.6716 203 24.5C203 25.3284 203.672 26 204.5 26ZM206 47.5C206 48.3284 205.328 49 204.5 49C203.672 49 203 48.3284 203 47.5C203 46.6716 203.672 46 204.5 46C205.328 46 206 46.6716 206 47.5ZM204.5 72C205.328 72 206 71.3284 206 70.5C206 69.6716 205.328 69 204.5 69C203.672 69 203 69.6716 203 70.5C203 71.3284 203.672 72 204.5 72ZM206 93.5C206 94.3284 205.328 95 204.5 95C203.672 95 203 94.3284 203 93.5C203 92.6716 203.672 92 204.5 92C205.328 92 206 92.6716 206 93.5ZM204.5 118C205.328 118 206 117.328 206 116.5C206 115.672 205.328 115 204.5 115C203.672 115 203 115.672 203 116.5C203 117.328 203.672 118 204.5 118ZM206 139.5C206 140.328 205.328 141 204.5 141C203.672 141 203 140.328 203 139.5C203 138.672 203.672 138 204.5 138C205.328 138 206 138.672 206 139.5ZM204.5 164C205.328 164 206 163.328 206 162.5C206 161.672 205.328 161 204.5 161C203.672 161 203 161.672 203 162.5C203 163.328 203.672 164 204.5 164ZM251 1.5C251 2.32843 250.328 3 249.5 3C248.672 3 248 2.32843 248 1.5C248 0.671573 248.672 0 249.5 0C250.328 0 251 0.671573 251 1.5ZM249.5 26C250.328 26 251 25.3284 251 24.5C251 23.6716 250.328 23 249.5 23C248.672 23 248 23.6716 248 24.5C248 25.3284 248.672 26 249.5 26ZM251 47.5C251 48.3284 250.328 49 249.5 49C248.672 49 248 48.3284 248 47.5C248 46.6716 248.672 46 249.5 46C250.328 46 251 46.6716 251 47.5ZM249.5 72C250.328 72 251 71.3284 251 70.5C251 69.6716 250.328 69 249.5 69C248.672 69 248 69.6716 248 70.5C248 71.3284 248.672 72 249.5 72ZM251 93.5C251 94.3284 250.328 95 249.5 95C248.672 95 248 94.3284 248 93.5C248 92.6716 248.672 92 249.5 92C250.328 92 251 92.6716 251 93.5ZM249.5 118C250.328 118 251 117.328 251 116.5C251 115.672 250.328 115 249.5 115C248.672 115 248 115.672 248 116.5C248 117.328 248.672 118 249.5 118ZM251 139.5C251 140.328 250.328 141 249.5 141C248.672 141 248 140.328 248 139.5C248 138.672 248.672 138 249.5 138C250.328 138 251 138.672 251 139.5ZM249.5 164C250.328 164 251 163.328 251 162.5C251 161.672 250.328 161 249.5 161C248.672 161 248 161.672 248 162.5C248 163.328 248.672 164 249.5 164Z"
          fill="white" fill-opacity="0.7"/>
</svg>
