<svg width="21" height="14" viewBox="0 0 21 14" fill="none" xmlns="http://www.w3.org/2000/svg">
    <path fill-rule="evenodd" clip-rule="evenodd"
          d="M0.5 1C0.5 0.723858 0.723858 0.5 1 0.5H20C20.2761 0.5 20.5 0.723858 20.5 1C20.5 1.27614 20.2761 1.5 20 1.5H1C0.723858 1.5 0.5 1.27614 0.5 1ZM0.5 7C0.5 6.72386 0.723858 6.5 1 6.5H20C20.2761 6.5 20.5 6.72386 20.5 7C20.5 7.27614 20.2761 7.5 20 7.5H1C0.723858 7.5 0.5 7.27614 0.5 7ZM1 12.5C0.723858 12.5 0.5 12.7239 0.5 13C0.5 13.2761 0.723858 13.5 1 13.5H20C20.2761 13.5 20.5 13.2761 20.5 13C20.5 12.7239 20.2761 12.5 20 12.5H1Z"
          fill="white"/>
</svg>
