<svg width="280" height="43" viewBox="0 0 280 43" fill="none" xmlns="http://www.w3.org/2000/svg">
    <path d="M104.992 0V7.56044H279.5V43H0V7.56044H67.1184V0H104.992ZM276.624 10.3956H104.992V35.9121H67.1184V10.3956H2.8765V40.1648H276.624V10.3956Z"
          fill="black"/>
    <path d="M18.0873 32.8483C20.6161 32.8483 22.5333 31.7375 23.8389 29.516L21.3239 28.3172C21.0215 28.8997 20.5783 29.3738 19.9942 29.7395C19.4101 30.1052 18.7745 30.2881 18.0873 30.2881C16.8367 30.2881 15.806 29.8682 14.9951 29.0283C14.1842 28.1885 13.7788 27.1252 13.7788 25.8383C13.7788 24.5515 14.1842 23.4881 14.9951 22.6483C15.806 21.8084 16.8367 21.3885 18.0873 21.3885C18.7745 21.3885 19.4101 21.5748 19.9942 21.9473C20.5783 22.3198 21.0215 22.7905 21.3239 23.3594L23.8389 22.1403C22.5745 19.9323 20.6573 18.8284 18.0873 18.8284C15.9984 18.8284 14.2564 19.4819 12.8615 20.7891C11.4665 22.0963 10.769 23.7793 10.769 25.8383C10.769 27.8973 11.4665 29.5803 12.8615 30.8875C14.2564 32.1947 15.9984 32.8483 18.0873 32.8483ZM34.3319 32.6044V30.0646H28.5185V19.0519H25.5912V32.6044H34.3319ZM42.0831 32.8483C44.1171 32.8483 45.6564 32.3403 46.7008 31.3244C47.7591 30.3084 48.2882 28.9267 48.2882 27.1793V19.0519H45.299V27.0981C45.299 28.0734 45.0207 28.8489 44.4641 29.4246C43.9075 30.0003 43.1139 30.2881 42.0831 30.2881C41.0524 30.2881 40.2552 30.0003 39.6918 29.4246C39.1283 28.8489 38.8466 28.0734 38.8466 27.0981V19.0519H35.878V27.1997C35.878 28.92 36.4037 30.2915 37.4551 31.3142C38.5064 32.3369 40.0491 32.8483 42.0831 32.8483ZM58.4514 32.6044C59.7157 32.6044 60.6984 32.259 61.3993 31.5682C62.1002 30.8773 62.4506 30.0036 62.4506 28.9471C62.4506 28.1072 62.1964 27.369 61.6879 26.7323C61.1794 26.0957 60.5541 25.7232 59.8119 25.6148C60.4854 25.4793 61.0488 25.1339 61.5024 24.5785C61.9559 24.0232 62.1827 23.3323 62.1827 22.506C62.1827 21.5443 61.8356 20.7282 61.1416 20.0576C60.4476 19.3871 59.4752 19.0519 58.2246 19.0519H50.9888V32.6044H58.4514ZM57.5855 24.477H53.9161V21.5307H57.5855C58.0665 21.5307 58.4548 21.6696 58.7503 21.9473C59.0457 22.225 59.1935 22.5805 59.1935 23.014C59.1935 23.4475 59.0492 23.7997 58.7606 24.0706C58.472 24.3415 58.0803 24.477 57.5855 24.477ZM57.6886 30.1052H53.9161V26.9558H57.6886C58.2383 26.9558 58.6712 27.1082 58.9873 27.413C59.3034 27.7178 59.4615 28.0937 59.4615 28.5407C59.4615 29.0283 59.3034 29.411 58.9873 29.6887C58.6712 29.9664 58.2383 30.1052 57.6886 30.1052Z"
          fill="black"/>
    <path d="M76.4482 32.8483C78.5372 32.8483 80.2585 32.1913 81.6122 30.8773C82.9659 29.5634 83.6428 27.8837 83.6428 25.8383C83.6428 23.7929 82.9659 22.1132 81.6122 20.7993C80.2585 19.4853 78.5372 18.8284 76.4482 18.8284C74.3729 18.8284 72.6585 19.4887 71.3047 20.8094C69.951 22.1301 69.2742 23.8064 69.2742 25.8383C69.2742 27.8702 69.951 29.5465 71.3047 30.8672C72.6585 32.1879 74.3729 32.8483 76.4482 32.8483ZM76.4482 30.2881C75.1975 30.2881 74.1874 29.8682 73.4178 29.0283C72.6619 28.1885 72.284 27.1252 72.284 25.8383C72.284 24.5515 72.6653 23.4881 73.4281 22.6483C74.1908 21.8084 75.1975 21.3885 76.4482 21.3885C77.6988 21.3885 78.7089 21.8084 79.4786 22.6483C80.2482 23.4881 80.633 24.5515 80.633 25.8383C80.633 27.1252 80.2482 28.1885 79.4786 29.0283C78.7089 29.8682 77.6988 30.2881 76.4482 30.2881ZM88.6316 32.6044V26.9965H95.2902V24.4566H88.6316V21.5917H95.4345V19.0519H85.7043V32.6044H88.6316Z"
          fill="white"/>
    <path d="M114.689 32.8483C117.218 32.8483 119.135 31.7375 120.44 29.516L117.925 28.3172C117.623 28.8997 117.18 29.3738 116.596 29.7395C116.012 30.1052 115.376 30.2881 114.689 30.2881C113.438 30.2881 112.408 29.8682 111.597 29.0283C110.786 28.1885 110.38 27.1252 110.38 25.8383C110.38 24.5515 110.786 23.4881 111.597 22.6483C112.408 21.8084 113.438 21.3885 114.689 21.3885C115.376 21.3885 116.012 21.5748 116.596 21.9473C117.18 22.3198 117.623 22.7905 117.925 23.3594L120.44 22.1403C119.176 19.9323 117.259 18.8284 114.689 18.8284C112.6 18.8284 110.858 19.4819 109.463 20.7891C108.068 22.0963 107.371 23.7793 107.371 25.8383C107.371 27.8973 108.068 29.5803 109.463 30.8875C110.858 32.1947 112.6 32.8483 114.689 32.8483ZM125.12 32.6044V27.7889H127.264L129.965 32.6044H133.325L130.233 27.4435C131.071 27.2538 131.782 26.8136 132.366 26.1228C132.95 25.4319 133.242 24.5311 133.242 23.4204C133.242 22.1335 132.827 21.0837 131.995 20.271C131.164 19.4582 130.04 19.0519 128.625 19.0519H122.193V32.6044H125.12ZM128.192 25.2491H125.12V21.5917H128.192C128.796 21.5917 129.291 21.7576 129.676 22.0895C130.061 22.4214 130.253 22.865 130.253 23.4204C130.253 23.9758 130.061 24.4194 129.676 24.7513C129.291 25.0831 128.796 25.2491 128.192 25.2491ZM141.839 32.6044V27.0574L147.096 19.0519H143.756L140.375 24.4973L136.953 19.0519H133.613L138.911 27.0574V32.6044H141.839ZM151.301 32.6044V27.7889H154.806C156.235 27.7889 157.362 27.369 158.186 26.5291C159.011 25.6893 159.423 24.6531 159.423 23.4204C159.423 22.1742 159.014 21.1345 158.197 20.3015C157.379 19.4684 156.249 19.0519 154.806 19.0519H148.374V32.6044H151.301ZM154.414 25.2491H151.301V21.5917H154.414C155.005 21.5917 155.489 21.7576 155.867 22.0895C156.245 22.4214 156.434 22.865 156.434 23.4204C156.434 23.9758 156.245 24.4194 155.867 24.7513C155.489 25.0831 155.005 25.2491 154.414 25.2491ZM167.36 32.6044V21.5917H171.359V19.0519H160.392V21.5917H164.412V32.6044H167.36ZM179.255 32.8483C181.344 32.8483 183.065 32.1913 184.419 30.8773C185.773 29.5634 186.449 27.8837 186.449 25.8383C186.449 23.7929 185.773 22.1132 184.419 20.7993C183.065 19.4853 181.344 18.8284 179.255 18.8284C177.18 18.8284 175.465 19.4887 174.111 20.8094C172.758 22.1301 172.081 23.8064 172.081 25.8383C172.081 27.8702 172.758 29.5465 174.111 30.8672C175.465 32.1879 177.18 32.8483 179.255 32.8483ZM179.255 30.2881C178.004 30.2881 176.994 29.8682 176.224 29.0283C175.469 28.1885 175.091 27.1252 175.091 25.8383C175.091 24.5515 175.472 23.4881 176.235 22.6483C176.998 21.8084 178.004 21.3885 179.255 21.3885C180.505 21.3885 181.516 21.8084 182.285 22.6483C183.055 23.4881 183.44 24.5515 183.44 25.8383C183.44 27.1252 183.055 28.1885 182.285 29.0283C181.516 29.8682 180.505 30.2881 179.255 30.2881ZM202.529 32.6044V30.0646H196.716V19.0519H193.788V32.6044H202.529ZM210.528 32.8483C212.617 32.8483 214.338 32.1913 215.692 30.8773C217.045 29.5634 217.722 27.8837 217.722 25.8383C217.722 23.7929 217.045 22.1132 215.692 20.7993C214.338 19.4853 212.617 18.8284 210.528 18.8284C208.452 18.8284 206.738 19.4887 205.384 20.8094C204.031 22.1301 203.354 23.8064 203.354 25.8383C203.354 27.8702 204.031 29.5465 205.384 30.8672C206.738 32.1879 208.452 32.8483 210.528 32.8483ZM210.528 30.2881C209.277 30.2881 208.267 29.8682 207.497 29.0283C206.741 28.1885 206.363 27.1252 206.363 25.8383C206.363 24.5515 206.745 23.4881 207.508 22.6483C208.27 21.8084 209.277 21.3885 210.528 21.3885C211.778 21.3885 212.788 21.8084 213.558 22.6483C214.328 23.4881 214.713 24.5515 214.713 25.8383C214.713 27.1252 214.328 28.1885 213.558 29.0283C212.788 29.8682 211.778 30.2881 210.528 30.2881ZM226.896 32.6044L232.194 19.0519H228.854L225.061 29.4754L221.247 19.0519H217.908L223.226 32.6044H226.896ZM243.202 32.6044V30.0646H236.399V26.9965H243.058V24.4566H236.399V21.5917H243.202V19.0519H233.472V32.6044H243.202ZM248.418 32.6044V27.7889H250.562L253.262 32.6044H256.623L253.53 27.4435C254.369 27.2538 255.08 26.8136 255.664 26.1228C256.248 25.4319 256.54 24.5311 256.54 23.4204C256.54 22.1335 256.124 21.0837 255.293 20.271C254.462 19.4582 253.338 19.0519 251.922 19.0519H245.491V32.6044H248.418ZM251.49 25.2491H248.418V21.5917H251.49C252.094 21.5917 252.589 21.7576 252.974 22.0895C253.359 22.4214 253.551 22.865 253.551 23.4204C253.551 23.9758 253.359 24.4194 252.974 24.7513C252.589 25.0831 252.094 25.2491 251.49 25.2491ZM263.632 32.8483C265.418 32.8483 266.782 32.4487 267.724 31.6495C268.665 30.8502 269.136 29.8005 269.136 28.5001C269.136 27.7144 268.94 27.0405 268.548 26.4783C268.157 25.9162 267.669 25.503 267.085 25.2389C266.501 24.9748 265.868 24.7377 265.188 24.5278C264.508 24.3178 263.876 24.1586 263.292 24.0503C262.708 23.9419 262.22 23.776 261.828 23.5525C261.436 23.329 261.24 23.0546 261.24 22.7295C261.24 22.3096 261.412 21.9778 261.756 21.7339C262.099 21.4901 262.58 21.3682 263.199 21.3682C264.779 21.3682 266.112 21.8626 267.198 22.8515L268.827 20.7383C267.439 19.4786 265.652 18.8487 263.467 18.8487C261.886 18.8487 260.622 19.2449 259.674 20.0373C258.725 20.8298 258.251 21.8084 258.251 22.9734C258.251 23.7726 258.447 24.4499 258.839 25.0052C259.23 25.5606 259.718 25.967 260.302 26.2244C260.887 26.4817 261.522 26.712 262.209 26.9152C262.896 27.1184 263.532 27.2742 264.116 27.3825C264.7 27.4909 265.188 27.667 265.58 27.9108C265.972 28.1546 266.167 28.4594 266.167 28.8252C266.167 29.2451 265.958 29.6007 265.539 29.8919C265.119 30.1831 264.532 30.3287 263.776 30.3287C262.044 30.3287 260.588 29.7192 259.406 28.5001L257.818 30.6945C259.248 32.1303 261.185 32.8483 263.632 32.8483Z"
          fill="black"/>
</svg>
