<svg width="47" height="42" viewBox="0 0 47 42" fill="none" xmlns="http://www.w3.org/2000/svg">
    <path fill-rule="evenodd" clip-rule="evenodd" d="M13.4683 38.5L19.5789 40.1251V38L20.0778 37.5H23.5695V40V41.75H19.8283L15.2141 39.75L13.4683 38.5Z"
          fill="#CDBDB2"/>
    <path fill-rule="evenodd" clip-rule="evenodd" d="M33.4214 38.5L27.4355 40.1251V38L26.9367 37.5H23.445V40V41.75H27.1861L31.8001 39.75L33.4214 38.5Z"
          fill="#CDBDB2"/>
    <path fill-rule="evenodd" clip-rule="evenodd"
          d="M20.0779 33.8751L19.5791 38L20.2025 37.5H26.6872L27.4354 38L26.9366 33.8751L25.939 33.25L20.9507 33.3751L20.0779 33.8751Z" fill="#393939"/>
    <path fill-rule="evenodd" clip-rule="evenodd" d="M16.7104 6.00003L19.7034 13L21.0752 33.3751H25.9386L27.4351 13L30.1786 6.00003H16.7104Z" fill="#F89C35"/>
    <path fill-rule="evenodd" clip-rule="evenodd"
          d="M3.61675 21.3753L0.125 31.5002L8.85436 31.0002H14.466V26.6253L14.2166 17.6253L12.9695 18.6253L3.61675 21.3753Z" fill="#F89D35"/>
    <path fill-rule="evenodd" clip-rule="evenodd" d="M10.2256 22.5001L20.4514 22.7501L19.3292 28.0001L14.4656 26.7501L10.2256 22.5001Z" fill="#D87C30"/>
    <path fill-rule="evenodd" clip-rule="evenodd" d="M10.2256 22.6252L14.4656 26.6252V30.6252L10.2256 22.6252Z" fill="#EA8D3A"/>
    <path fill-rule="evenodd" clip-rule="evenodd" d="M14.4663 26.7501L19.4545 28.0001L21.0758 33.3752L19.9533 34.0001L14.4663 30.7501V26.7501Z" fill="#F89D35"/>
    <path fill-rule="evenodd" clip-rule="evenodd" d="M14.4659 30.7499L13.4683 38.4999L20.0777 33.8751L14.4659 30.7499Z" fill="#EB8F35"/>
    <path fill-rule="evenodd" clip-rule="evenodd" d="M20.4516 22.75L21.0753 33.3751L19.2046 27.9375L20.4516 22.75Z" fill="#EA8E3A"/>
    <path fill-rule="evenodd" clip-rule="evenodd" d="M8.72998 30.8751L14.4664 30.7499L13.4688 38.4999L8.72998 30.8751Z" fill="#D87C30"/>
    <path fill-rule="evenodd" clip-rule="evenodd" d="M2.86851 41.8753L13.4683 38.5002L8.72955 30.8753L0.125 31.5002L2.86851 41.8753Z" fill="#EB8F35"/>
    <path fill-rule="evenodd" clip-rule="evenodd" d="M19.7032 12.9999L14.341 17.4999L10.2256 22.4999L20.4514 22.875L19.7032 12.9999Z" fill="#E8821E"/>
    <path fill-rule="evenodd" clip-rule="evenodd" d="M13.4683 38.4999L20.0777 33.8751L19.5789 37.8751V40.1251L15.0895 39.2499L13.4683 38.4999Z" fill="#DFCEC3"/>
    <path fill-rule="evenodd" clip-rule="evenodd" d="M33.4214 38.4999L26.9367 33.8751L27.4355 37.8751V40.1251L31.9249 39.2499L33.4214 38.4999Z" fill="#DFCEC3"/>
    <path fill-rule="evenodd" clip-rule="evenodd" d="M17.7082 25L19.0801 27.8751L14.2165 26.6251L17.7082 25Z" fill="#393939"/>
    <path fill-rule="evenodd" clip-rule="evenodd" d="M2.74365 0.125092L19.7036 13L16.8355 5.99998L2.74365 0.125092Z" fill="#E88F35"/>
    <path fill-rule="evenodd" clip-rule="evenodd"
          d="M2.74372 0.125031L0.499023 7.00003L1.74608 14.5L0.873139 15L2.12019 16.125L1.12255 17L2.49431 18.25L1.62137 19L3.61665 21.5L12.9695 18.625C17.5421 14.9584 19.7868 13.0834 19.7036 13C19.6205 12.9167 13.9672 8.62503 2.74372 0.125031Z"
          fill="#8E5A30"/>
    <path fill-rule="evenodd" clip-rule="evenodd"
          d="M43.2729 21.3753L46.7646 31.5002L38.0353 31.0002H32.4237V26.6253L32.6731 17.6253L33.9201 18.6253L43.2729 21.3753Z" fill="#F89D35"/>
    <path fill-rule="evenodd" clip-rule="evenodd" d="M36.6641 22.5001L26.4382 22.7501L27.5605 28.0001L32.4241 26.7501L36.6641 22.5001Z" fill="#D87C30"/>
    <path fill-rule="evenodd" clip-rule="evenodd" d="M36.6641 22.6252L32.4241 26.6252V30.6252L36.6641 22.6252Z" fill="#EA8D3A"/>
    <path fill-rule="evenodd" clip-rule="evenodd" d="M32.4233 26.7501L27.4351 28.0001L25.8139 33.3752L26.9363 34.0001L32.4233 30.7501V26.7501Z" fill="#F89D35"/>
    <path fill-rule="evenodd" clip-rule="evenodd" d="M32.4237 30.7499L33.4214 38.4999L26.9367 33.9999L32.4237 30.7499Z" fill="#EB8F35"/>
    <path fill-rule="evenodd" clip-rule="evenodd" d="M26.438 22.75L25.8144 33.3751L27.6851 27.9375L26.438 22.75Z" fill="#EA8E3A"/>
    <path fill-rule="evenodd" clip-rule="evenodd" d="M38.1597 30.8751L32.4232 30.7499L33.4209 38.4999L38.1597 30.8751Z" fill="#D87C30"/>
    <path fill-rule="evenodd" clip-rule="evenodd" d="M44.0211 41.8753L33.4213 38.5002L38.1601 30.8753L46.7646 31.5002L44.0211 41.8753Z" fill="#EB8F35"/>
    <path fill-rule="evenodd" clip-rule="evenodd" d="M27.1865 12.9999L32.5487 17.4999L36.6641 22.4999L26.4382 22.875L27.1865 12.9999Z" fill="#E8821E"/>
    <path fill-rule="evenodd" clip-rule="evenodd" d="M29.1814 25L27.8096 27.8751L32.6732 26.6251L29.1814 25Z" fill="#393939"/>
    <path fill-rule="evenodd" clip-rule="evenodd" d="M44.146 0.125092L27.1861 13L30.0542 5.99998L44.146 0.125092Z" fill="#E88F35"/>
    <path fill-rule="evenodd" clip-rule="evenodd"
          d="M44.1459 0.125031L46.3906 7.00003L45.1436 14.5L46.0165 15L44.7695 16.125L45.7671 17L44.3953 18.25L45.2683 19L43.273 21.5L33.9201 18.625C29.3476 14.9584 27.1029 13.0834 27.186 13C27.2692 12.9167 32.9225 8.62503 44.1459 0.125031Z"
          fill="#8E5A30"/>
</svg>
