<svg width="47" height="29" viewBox="0 0 47 29" fill="none" xmlns="http://www.w3.org/2000/svg">
    <g clip-path="url(#clip0)">
        <path d="M9.62531 5.68017C17.2881 -1.82231 29.7119 -1.82231 37.3746 5.68017L38.2968 6.58311C38.68 6.95823 38.68 7.56643 38.2968 7.94155L35.1421 11.0303C34.9505 11.2179 34.6399 11.2179 34.4484 11.0303L33.1793 9.78777C27.8335 4.55385 19.1664 4.55385 13.8207 9.78777L12.4616 11.1184C12.27 11.306 11.9594 11.306 11.7678 11.1184L8.61308 8.02967C8.22995 7.65455 8.22995 7.04635 8.61308 6.67123L9.62531 5.68017ZM43.8989 12.0681L46.7067 14.8171C47.0898 15.1922 47.0898 15.8004 46.7067 16.1755L34.0464 28.5712C33.6633 28.9463 33.0421 28.9463 32.6589 28.5712C32.6589 28.5712 32.6589 28.5712 32.6589 28.5712L23.6735 19.7736C23.5777 19.6798 23.4224 19.6798 23.3266 19.7736C23.3266 19.7736 23.3266 19.7736 23.3266 19.7736L14.3413 28.5712C13.9582 28.9463 13.337 28.9463 12.9538 28.5712C12.9538 28.5712 12.9538 28.5712 12.9538 28.5712L0.293213 16.1754C-0.0899251 15.8002 -0.0899251 15.192 0.293213 14.8169L3.10095 12.0679C3.48409 11.6928 4.10528 11.6928 4.48842 12.0679L13.474 20.8656C13.5698 20.9594 13.7251 20.9594 13.8209 20.8656C13.8209 20.8656 13.8209 20.8656 13.8209 20.8656L22.8061 12.0679C23.1892 11.6928 23.8104 11.6928 24.1935 12.0679C24.1935 12.0679 24.1935 12.0679 24.1935 12.0679L33.1791 20.8656C33.2749 20.9594 33.4302 20.9594 33.526 20.8656L42.5115 12.0681C42.8946 11.6929 43.5158 11.6929 43.8989 12.0681Z"
              fill="#3B99FC"/>
    </g>
    <defs>
        <clipPath id="clip0">
            <rect width="47" height="28.9833" fill="white"/>
        </clipPath>
    </defs>
</svg>
